<svg width="120" height="120" viewBox="0 0 120 120" fill="none" xmlns="http://www.w3.org/2000/svg">
<g clip-path="url(#clip0_151_4528)">
<path d="M28.9842 0V22.3418L55.1796 33.2812H64.8201L91.0155 22.3418V0H28.9842Z" fill="#EFEFEF"/>
<path d="M60 0V33.2812H64.8202L91.0155 22.3418V0H60Z" fill="#D4D4D4"/>
<path d="M56.5153 33.2812L56.4548 0H28.9842V22.3418L55.1796 33.2812H56.5153Z" fill="#0065E3"/>
<path d="M63.4861 0L63.5466 33.2812H64.8202L91.0155 22.3418V0H63.4861Z" fill="#E0001F"/>
<path d="M59.9998 27.8125C53.538 27.8125 48.281 33.0695 48.281 39.5312C48.281 45.993 53.538 51.25 59.9998 51.25C66.4615 51.25 71.7185 45.993 71.7185 39.5312C71.7185 33.0695 66.4617 27.8125 59.9998 27.8125ZM59.9998 44.219C57.4151 44.219 55.3123 42.1162 55.3123 39.5315C55.3123 36.9468 57.4151 34.844 59.9998 34.844C62.5844 34.844 64.6873 36.9468 64.6873 39.5315C64.6875 42.1162 62.5847 44.219 59.9998 44.219Z" fill="#FFB012"/>
<path d="M60 27.8125V34.8438C62.5847 34.8438 64.6875 36.9466 64.6875 39.5312C64.6875 42.1159 62.5847 44.2188 60 44.2188V51.25C66.4617 51.25 71.7188 45.993 71.7188 39.5312C71.7188 33.0698 66.4617 27.8127 60 27.8125Z" fill="#FF7300"/>
<path d="M60 116.485C80.4298 116.485 96.9914 99.9231 96.9914 79.4934C96.9914 59.0636 80.4298 42.502 60 42.502C39.5702 42.502 23.0086 59.0636 23.0086 79.4934C23.0086 99.9231 39.5702 116.485 60 116.485Z" fill="#FFB012"/>
<path d="M60 116.484C80.4302 116.484 96.9921 99.9226 96.9921 79.4923C96.9921 59.0621 80.4302 42.5 60 42.5V116.484Z" fill="#FF7300"/>
<path d="M59.9997 120C37.6636 120 19.492 101.828 19.492 79.4921C19.492 57.1562 37.6636 38.9844 59.9997 38.9844C82.3359 38.9844 100.508 57.1562 100.508 79.4921C100.508 101.828 82.3359 120 59.9997 120ZM59.9997 46.0154C41.5406 46.0154 26.5233 61.033 26.5233 79.4919C26.5233 97.951 41.5406 112.968 59.9997 112.968C78.4589 112.968 93.4765 97.9508 93.4765 79.4919C93.4765 61.033 78.4589 46.0154 59.9997 46.0154Z" fill="#FFDB2D"/>
<path d="M60 60.3496L66.7627 70.1784L78.2002 73.5728L70.9423 83.0418L71.2481 94.9684L60 90.9918L48.7517 94.9684L49.0578 83.0418L41.7999 73.5728L53.2374 70.1784L60 60.3496Z" fill="#FFE257"/>
<path d="M60 90.9918L71.2481 94.9684L70.9423 83.0418L78.2002 73.5728L66.7627 70.1784L60 60.3496V90.9918Z" fill="#FFBC12"/>
<path d="M60 38.9844V46.0156C78.4589 46.0156 93.4767 61.0332 93.4767 79.4921C93.4765 97.9512 78.4589 112.969 60 112.969V120C82.3359 120 100.508 101.828 100.508 79.4923C100.508 57.1564 82.3359 38.9844 60 38.9844Z" fill="#FFB012"/>
</g>
<defs>
<clipPath id="clip0_151_4528">
<rect width="120" height="120" fill="white"/>
</clipPath>
</defs>
</svg>
