<svg width="1432" height="659" viewBox="0 0 1432 659" fill="none" xmlns="http://www.w3.org/2000/svg">
<line x1="525" y1="342" x2="726" y2="342" stroke="#20272C" stroke-opacity="0.15" stroke-width="4" stroke-dasharray="14 14"/>
<line x1="726" y1="568" x2="909" y2="568" stroke="#20272C" stroke-opacity="0.15" stroke-width="4" stroke-dasharray="14 14"/>
<line x1="726" y1="88" x2="909" y2="88" stroke="#20272C" stroke-opacity="0.15" stroke-width="4" stroke-dasharray="14 14"/>
<line x1="724" y1="570" x2="724" y2="89" stroke="#20272C" stroke-opacity="0.15" stroke-width="4" stroke-dasharray="14 14"/>
<path d="M118.151 300.782C117.924 298.651 117.176 296.997 115.907 295.818C114.66 294.639 113.051 294.05 111.079 294.05C109.877 294.05 108.744 294.311 107.679 294.832C106.636 295.331 105.718 296.056 104.925 297.008C104.131 297.96 103.508 299.105 103.055 300.442C102.601 301.779 102.375 303.287 102.375 304.964C102.375 307.095 102.783 308.976 103.599 310.608C104.415 312.24 105.514 313.509 106.897 314.416C108.279 315.323 109.809 315.776 111.487 315.776C112.96 315.776 114.411 315.447 115.839 314.79C117.267 314.11 118.434 313.135 119.341 311.866L120.225 312.58C119.25 313.917 118.196 314.949 117.063 315.674C115.929 316.399 114.796 316.887 113.663 317.136C112.552 317.408 111.532 317.544 110.603 317.544C108.903 317.544 107.339 317.238 105.911 316.626C104.505 316.014 103.281 315.164 102.239 314.076C101.219 312.965 100.425 311.685 99.8585 310.234C99.3145 308.761 99.0425 307.174 99.0425 305.474C99.0425 303.865 99.2805 302.301 99.7565 300.782C100.255 299.263 100.992 297.892 101.967 296.668C102.941 295.444 104.165 294.469 105.639 293.744C107.135 293.019 108.869 292.656 110.841 292.656C112.11 292.656 113.311 292.826 114.445 293.166C115.578 293.506 116.666 294.027 117.709 294.73L117.539 292.894H119.375V300.782H118.151ZM130.976 317.544C129.412 317.544 127.995 317.181 126.726 316.456C125.479 315.708 124.493 314.665 123.768 313.328C123.043 311.968 122.68 310.37 122.68 308.534C122.68 306.947 123.031 305.463 123.734 304.08C124.459 302.697 125.468 301.587 126.76 300.748C128.052 299.887 129.548 299.456 131.248 299.456C132.2 299.456 133.084 299.615 133.9 299.932C134.739 300.227 135.475 300.691 136.11 301.326C136.745 301.938 137.243 302.72 137.606 303.672C137.969 304.601 138.15 305.701 138.15 306.97L126.182 307.174C126.182 308.897 126.363 310.415 126.726 311.73C127.111 313.022 127.723 314.031 128.562 314.756C129.401 315.459 130.477 315.81 131.792 315.81C132.495 315.81 133.209 315.685 133.934 315.436C134.682 315.187 135.373 314.847 136.008 314.416C136.643 313.985 137.153 313.509 137.538 312.988L138.354 313.668C137.742 314.62 137.005 315.379 136.144 315.946C135.283 316.513 134.399 316.921 133.492 317.17C132.585 317.419 131.747 317.544 130.976 317.544ZM126.284 305.746H134.954C134.954 304.93 134.829 304.148 134.58 303.4C134.353 302.629 133.968 302.006 133.424 301.53C132.88 301.031 132.166 300.782 131.282 300.782C129.967 300.782 128.868 301.179 127.984 301.972C127.123 302.743 126.556 304.001 126.284 305.746ZM140.836 315.98C141.538 315.98 142.026 315.81 142.298 315.47C142.57 315.107 142.728 314.62 142.774 314.008C142.819 313.373 142.842 312.648 142.842 311.832V295.75C142.842 295.387 142.842 295.047 142.842 294.73C142.864 294.39 142.898 293.993 142.944 293.54C142.536 293.563 142.128 293.585 141.72 293.608C141.334 293.631 140.938 293.653 140.53 293.676V292.248C141.527 292.248 142.298 292.203 142.842 292.112C143.408 292.021 143.828 291.908 144.1 291.772C144.394 291.636 144.621 291.489 144.78 291.33H145.766L145.8 313.396C145.8 313.849 145.788 314.257 145.766 314.62C145.743 314.96 145.698 315.323 145.63 315.708C145.992 315.685 146.344 315.674 146.684 315.674C147.046 315.651 147.409 315.629 147.772 315.606V317H140.836V315.98ZM150.099 315.98C150.802 315.98 151.289 315.81 151.561 315.47C151.833 315.107 151.992 314.62 152.037 314.008C152.083 313.373 152.105 312.648 152.105 311.832V295.75C152.105 295.387 152.105 295.047 152.105 294.73C152.128 294.39 152.162 293.993 152.207 293.54C151.799 293.563 151.391 293.585 150.983 293.608C150.598 293.631 150.201 293.653 149.793 293.676V292.248C150.791 292.248 151.561 292.203 152.105 292.112C152.672 292.021 153.091 291.908 153.363 291.772C153.658 291.636 153.885 291.489 154.043 291.33H155.029L155.063 313.396C155.063 313.849 155.052 314.257 155.029 314.62C155.007 314.96 154.961 315.323 154.893 315.708C155.256 315.685 155.607 315.674 155.947 315.674C156.31 315.651 156.673 315.629 157.035 315.606V317H150.099V315.98ZM187.811 300.782C187.584 298.651 186.836 296.997 185.567 295.818C184.32 294.639 182.711 294.05 180.739 294.05C179.537 294.05 178.404 294.311 177.339 294.832C176.296 295.331 175.378 296.056 174.585 297.008C173.791 297.96 173.168 299.105 172.715 300.442C172.261 301.779 172.035 303.287 172.035 304.964C172.035 307.095 172.443 308.976 173.259 310.608C174.075 312.24 175.174 313.509 176.557 314.416C177.939 315.323 179.469 315.776 181.147 315.776C182.62 315.776 184.071 315.447 185.499 314.79C186.927 314.11 188.094 313.135 189.001 311.866L189.885 312.58C188.91 313.917 187.856 314.949 186.723 315.674C185.589 316.399 184.456 316.887 183.323 317.136C182.212 317.408 181.192 317.544 180.263 317.544C178.563 317.544 176.999 317.238 175.571 316.626C174.165 316.014 172.941 315.164 171.899 314.076C170.879 312.965 170.085 311.685 169.519 310.234C168.975 308.761 168.703 307.174 168.703 305.474C168.703 303.865 168.941 302.301 169.417 300.782C169.915 299.263 170.652 297.892 171.627 296.668C172.601 295.444 173.825 294.469 175.299 293.744C176.795 293.019 178.529 292.656 180.501 292.656C181.77 292.656 182.971 292.826 184.105 293.166C185.238 293.506 186.326 294.027 187.369 294.73L187.199 292.894H189.035V300.782H187.811ZM203.322 315.98C204.025 315.98 204.512 315.81 204.784 315.47C205.056 315.107 205.215 314.62 205.26 314.008C205.305 313.373 205.328 312.648 205.328 311.832V307.072C205.328 305.123 205.011 303.661 204.376 302.686C203.764 301.711 202.789 301.235 201.452 301.258C200.613 301.281 199.786 301.485 198.97 301.87C198.177 302.255 197.531 302.754 197.032 303.366V313.396C197.032 313.849 197.021 314.257 196.998 314.62C196.975 314.96 196.93 315.323 196.862 315.708C197.225 315.685 197.576 315.674 197.916 315.674C198.279 315.651 198.641 315.629 199.004 315.606V317H192.068V315.98C192.771 315.98 193.258 315.81 193.53 315.47C193.802 315.107 193.961 314.62 194.006 314.008C194.074 313.373 194.108 312.648 194.108 311.832V295.75C194.108 295.387 194.108 295.047 194.108 294.73C194.131 294.39 194.165 293.993 194.21 293.54C193.802 293.563 193.394 293.585 192.986 293.608C192.601 293.631 192.204 293.653 191.796 293.676V292.248C192.793 292.248 193.564 292.203 194.108 292.112C194.675 292.021 195.094 291.908 195.366 291.772C195.661 291.636 195.887 291.489 196.046 291.33H197.032V301.7C197.531 301.269 198.086 300.895 198.698 300.578C199.333 300.238 199.979 299.966 200.636 299.762C201.316 299.558 201.973 299.456 202.608 299.456C204.58 299.456 205.997 300.079 206.858 301.326C207.742 302.55 208.195 304.465 208.218 307.072L208.252 313.396C208.252 313.849 208.241 314.257 208.218 314.62C208.218 314.96 208.184 315.323 208.116 315.708C208.479 315.685 208.83 315.674 209.17 315.674C209.533 315.651 209.895 315.629 210.258 315.606V317H203.322V315.98ZM219.936 317.544C218.712 317.544 217.68 317.317 216.842 316.864C216.026 316.411 215.402 315.64 214.972 314.552C214.564 313.464 214.36 311.991 214.36 310.132V304.08C214.36 303.717 214.36 303.355 214.36 302.992C214.382 302.629 214.428 302.255 214.496 301.87C214.11 301.893 213.714 301.915 213.306 301.938C212.92 301.938 212.535 301.949 212.15 301.972V300.578H213.204C214.178 300.578 214.881 300.487 215.312 300.306C215.765 300.102 216.116 299.887 216.366 299.66H217.352V310.03C217.352 311.979 217.624 313.441 218.168 314.416C218.734 315.368 219.686 315.833 221.024 315.81C221.885 315.787 222.701 315.527 223.472 315.028C224.265 314.507 224.9 313.895 225.376 313.192V304.454C225.376 303.91 225.387 303.445 225.41 303.06C225.432 302.652 225.478 302.255 225.546 301.87C225.138 301.893 224.73 301.915 224.322 301.938C223.914 301.938 223.506 301.949 223.098 301.972V300.578H224.152C225.126 300.578 225.829 300.487 226.26 300.306C226.713 300.102 227.064 299.887 227.314 299.66H228.3L228.266 312.512C228.266 312.875 228.254 313.385 228.232 314.042C228.209 314.699 228.175 315.255 228.13 315.708C228.538 315.685 228.946 315.663 229.354 315.64C229.762 315.617 230.17 315.595 230.578 315.572V317H225.716C225.648 316.615 225.591 316.252 225.546 315.912C225.523 315.572 225.5 315.255 225.478 314.96C224.775 315.663 223.925 316.275 222.928 316.796C221.93 317.295 220.933 317.544 219.936 317.544ZM233.049 315.98C233.751 315.98 234.239 315.81 234.511 315.47C234.783 315.107 234.941 314.62 234.987 314.008C235.032 313.373 235.055 312.648 235.055 311.832V304.08C235.055 303.717 235.055 303.355 235.055 302.992C235.077 302.629 235.123 302.255 235.191 301.87C234.783 301.893 234.375 301.915 233.967 301.938C233.581 301.938 233.185 301.949 232.777 301.972V300.578H233.831C234.805 300.578 235.474 300.487 235.837 300.306C236.222 300.102 236.539 299.887 236.789 299.66H237.775C237.82 300.023 237.854 300.476 237.877 301.02C237.899 301.541 237.922 302.21 237.945 303.026C238.285 302.459 238.749 301.904 239.339 301.36C239.928 300.816 240.585 300.363 241.311 300C242.059 299.637 242.841 299.456 243.657 299.456C244.291 299.456 244.847 299.626 245.323 299.966C245.799 300.306 246.037 300.85 246.037 301.598C246.037 301.779 245.98 302.006 245.867 302.278C245.753 302.527 245.572 302.754 245.323 302.958C245.073 303.139 244.745 303.23 244.337 303.23C243.838 303.207 243.441 303.015 243.147 302.652C242.852 302.267 242.739 301.825 242.807 301.326C242.24 301.303 241.651 301.451 241.039 301.768C240.449 302.085 239.894 302.527 239.373 303.094C238.851 303.638 238.387 304.284 237.979 305.032L238.013 313.396C238.013 313.849 238.001 314.257 237.979 314.62C237.979 314.96 237.945 315.323 237.877 315.708C238.239 315.685 238.591 315.674 238.931 315.674C239.293 315.651 239.656 315.629 240.019 315.606V317H233.049V315.98ZM255.821 317.544C254.303 317.544 252.897 317.204 251.605 316.524C250.336 315.821 249.316 314.824 248.545 313.532C247.797 312.217 247.423 310.642 247.423 308.806C247.423 307.627 247.639 306.483 248.069 305.372C248.5 304.261 249.101 303.264 249.871 302.38C250.665 301.473 251.605 300.759 252.693 300.238C253.781 299.717 254.983 299.456 256.297 299.456C257.567 299.456 258.666 299.649 259.595 300.034C260.547 300.419 261.284 300.929 261.805 301.564C262.327 302.199 262.587 302.89 262.587 303.638C262.587 304.137 262.451 304.567 262.179 304.93C261.907 305.27 261.511 305.44 260.989 305.44C260.423 305.463 260.015 305.293 259.765 304.93C259.539 304.545 259.425 304.205 259.425 303.91C259.425 303.683 259.459 303.457 259.527 303.23C259.595 302.981 259.731 302.754 259.935 302.55C259.754 302.006 259.437 301.609 258.983 301.36C258.53 301.088 258.054 300.918 257.555 300.85C257.079 300.759 256.683 300.714 256.365 300.714C254.824 300.714 253.521 301.337 252.455 302.584C251.413 303.808 250.891 305.599 250.891 307.956C250.891 309.475 251.129 310.823 251.605 312.002C252.104 313.181 252.795 314.11 253.679 314.79C254.563 315.447 255.583 315.776 256.739 315.776C257.805 315.776 258.825 315.493 259.799 314.926C260.774 314.359 261.533 313.668 262.077 312.852L262.961 313.532C262.372 314.484 261.658 315.255 260.819 315.844C260.003 316.433 259.153 316.864 258.269 317.136C257.408 317.408 256.592 317.544 255.821 317.544ZM276.535 315.98C277.238 315.98 277.725 315.81 277.997 315.47C278.269 315.107 278.428 314.62 278.473 314.008C278.518 313.373 278.541 312.648 278.541 311.832V307.072C278.541 305.123 278.224 303.661 277.589 302.686C276.977 301.711 276.002 301.235 274.665 301.258C273.826 301.281 272.999 301.485 272.183 301.87C271.39 302.255 270.744 302.754 270.245 303.366V313.396C270.245 313.849 270.234 314.257 270.211 314.62C270.188 314.96 270.143 315.323 270.075 315.708C270.438 315.685 270.789 315.674 271.129 315.674C271.492 315.651 271.854 315.629 272.217 315.606V317H265.281V315.98C265.984 315.98 266.471 315.81 266.743 315.47C267.015 315.107 267.174 314.62 267.219 314.008C267.287 313.373 267.321 312.648 267.321 311.832V295.75C267.321 295.387 267.321 295.047 267.321 294.73C267.344 294.39 267.378 293.993 267.423 293.54C267.015 293.563 266.607 293.585 266.199 293.608C265.814 293.631 265.417 293.653 265.009 293.676V292.248C266.006 292.248 266.777 292.203 267.321 292.112C267.888 292.021 268.307 291.908 268.579 291.772C268.874 291.636 269.1 291.489 269.259 291.33H270.245V301.7C270.744 301.269 271.299 300.895 271.911 300.578C272.546 300.238 273.192 299.966 273.849 299.762C274.529 299.558 275.186 299.456 275.821 299.456C277.793 299.456 279.21 300.079 280.071 301.326C280.955 302.55 281.408 304.465 281.431 307.072L281.465 313.396C281.465 313.849 281.454 314.257 281.431 314.62C281.431 314.96 281.397 315.323 281.329 315.708C281.692 315.685 282.043 315.674 282.383 315.674C282.746 315.651 283.108 315.629 283.471 315.606V317H276.535V315.98ZM308.098 317.34C307.101 315.073 306.092 312.818 305.072 310.574C304.052 308.307 303.055 306.018 302.08 303.706C301.763 302.981 301.445 302.255 301.128 301.53C300.833 300.782 300.539 300.034 300.244 299.286C299.972 298.538 299.689 297.79 299.394 297.042C299.394 297.291 299.383 297.541 299.36 297.79C299.36 298.039 299.36 298.289 299.36 298.538C299.337 299.354 299.303 300.34 299.258 301.496C299.235 302.629 299.201 303.853 299.156 305.168C299.111 306.46 299.077 307.763 299.054 309.078C299.031 310.37 299.009 311.594 298.986 312.75C298.963 313.249 298.941 313.747 298.918 314.246C298.918 314.745 298.895 315.209 298.85 315.64C299.281 315.617 299.7 315.595 300.108 315.572C300.539 315.549 300.969 315.527 301.4 315.504V317H294.906V315.878C295.609 315.855 296.119 315.708 296.436 315.436C296.776 315.141 296.991 314.756 297.082 314.28C297.173 313.804 297.229 313.294 297.252 312.75L297.898 297.246C297.921 296.793 297.932 296.339 297.932 295.886C297.955 295.433 297.977 294.991 298 294.56C297.592 294.583 297.184 294.605 296.776 294.628C296.368 294.628 295.96 294.639 295.552 294.662V293.2H300.754L306.602 306.698C306.897 307.378 307.18 308.058 307.452 308.738C307.747 309.418 308.041 310.098 308.336 310.778C308.653 311.458 308.959 312.149 309.254 312.852H309.322C309.571 312.24 309.866 311.515 310.206 310.676C310.546 309.815 310.829 309.078 311.056 308.466C312.053 305.973 313.085 303.479 314.15 300.986C315.238 298.47 316.303 295.875 317.346 293.2H322.378V294.322C321.811 294.299 321.347 294.413 320.984 294.662C320.621 294.889 320.361 295.274 320.202 295.818C320.043 296.362 319.987 297.099 320.032 298.028L320.916 313.498C320.961 313.883 320.984 314.257 320.984 314.62C320.984 314.983 320.984 315.311 320.984 315.606C321.392 315.583 321.8 315.572 322.208 315.572C322.639 315.549 323.058 315.527 323.466 315.504V317H315.85V315.878C316.553 315.855 317.074 315.685 317.414 315.368C317.754 315.051 317.958 314.597 318.026 314.008C318.117 313.419 318.139 312.693 318.094 311.832L317.414 300.612C317.391 300.249 317.369 299.887 317.346 299.524C317.323 299.161 317.301 298.799 317.278 298.436C317.255 298.073 317.233 297.711 317.21 297.348C317.142 297.507 317.063 297.677 316.972 297.858C316.904 298.039 316.836 298.232 316.768 298.436L309.118 317.34H308.098ZM326.117 315.98C326.82 315.98 327.307 315.81 327.579 315.47C327.851 315.107 328.01 314.62 328.055 314.008C328.1 313.373 328.123 312.648 328.123 311.832V304.08C328.123 303.717 328.134 303.377 328.157 303.06C328.18 302.72 328.214 302.323 328.259 301.87C327.851 301.893 327.443 301.915 327.035 301.938C326.65 301.961 326.253 301.983 325.845 302.006V300.578C326.842 300.578 327.613 300.533 328.157 300.442C328.701 300.351 329.109 300.238 329.381 300.102C329.676 299.966 329.902 299.819 330.061 299.66H331.047V313.396C331.047 313.849 331.036 314.257 331.013 314.62C331.013 314.96 330.979 315.323 330.911 315.708C331.274 315.685 331.625 315.674 331.965 315.674C332.328 315.651 332.69 315.629 333.053 315.606V317H326.117V315.98ZM329.415 296.294C328.939 296.294 328.52 296.101 328.157 295.716C327.794 295.331 327.613 294.855 327.613 294.288C327.613 293.721 327.794 293.245 328.157 292.86C328.542 292.452 328.973 292.248 329.449 292.248C329.97 292.248 330.401 292.452 330.741 292.86C331.104 293.245 331.285 293.721 331.285 294.288C331.285 294.855 331.092 295.331 330.707 295.716C330.344 296.101 329.914 296.294 329.415 296.294ZM335.68 317V315.98C336.382 315.98 336.87 315.81 337.142 315.47C337.414 315.107 337.572 314.62 337.618 314.008C337.663 313.373 337.686 312.648 337.686 311.832L337.72 304.08C337.72 303.717 337.72 303.355 337.72 302.992C337.742 302.629 337.788 302.255 337.856 301.87C337.448 301.893 337.04 301.915 336.632 301.938C336.246 301.961 335.85 301.983 335.442 302.006V300.578C336.439 300.578 337.187 300.533 337.686 300.442C338.207 300.351 338.592 300.238 338.842 300.102C339.091 299.966 339.295 299.819 339.454 299.66H340.44C340.462 299.819 340.474 300 340.474 300.204C340.496 300.408 340.519 300.635 340.542 300.884C340.564 301.133 340.576 301.417 340.576 301.734C341.074 301.303 341.618 300.918 342.208 300.578C342.82 300.238 343.454 299.966 344.112 299.762C344.792 299.558 345.46 299.456 346.118 299.456C348.09 299.456 349.529 300.079 350.436 301.326C351.342 302.55 351.796 304.465 351.796 307.072V313.396C351.796 313.849 351.784 314.257 351.762 314.62C351.762 314.96 351.728 315.323 351.66 315.708C352.022 315.685 352.374 315.674 352.714 315.674C353.076 315.651 353.439 315.629 353.802 315.606V317H346.866V315.98C347.568 315.98 348.056 315.81 348.328 315.47C348.6 315.107 348.758 314.62 348.804 314.008C348.849 313.373 348.872 312.648 348.872 311.832V307.072C348.849 305.123 348.52 303.649 347.886 302.652C347.274 301.655 346.299 301.167 344.962 301.19C344.146 301.213 343.341 301.428 342.548 301.836C341.777 302.244 341.131 302.765 340.61 303.4C340.632 303.581 340.644 303.785 340.644 304.012C340.644 304.239 340.644 304.477 340.644 304.726L340.61 313.396C340.61 313.849 340.598 314.257 340.576 314.62C340.576 314.96 340.542 315.323 340.474 315.708C340.836 315.685 341.188 315.674 341.528 315.674C341.89 315.651 342.253 315.629 342.616 315.606V317H335.68ZM356.332 315.98C357.035 315.98 357.522 315.81 357.794 315.47C358.066 315.107 358.225 314.62 358.27 314.008C358.315 313.373 358.338 312.648 358.338 311.832V304.08C358.338 303.717 358.349 303.377 358.372 303.06C358.395 302.72 358.429 302.323 358.474 301.87C358.066 301.893 357.658 301.915 357.25 301.938C356.865 301.961 356.468 301.983 356.06 302.006V300.578C357.057 300.578 357.828 300.533 358.372 300.442C358.916 300.351 359.324 300.238 359.596 300.102C359.891 299.966 360.117 299.819 360.276 299.66H361.262V313.396C361.262 313.849 361.251 314.257 361.228 314.62C361.228 314.96 361.194 315.323 361.126 315.708C361.489 315.685 361.84 315.674 362.18 315.674C362.543 315.651 362.905 315.629 363.268 315.606V317H356.332V315.98ZM359.63 296.294C359.154 296.294 358.735 296.101 358.372 295.716C358.009 295.331 357.828 294.855 357.828 294.288C357.828 293.721 358.009 293.245 358.372 292.86C358.757 292.452 359.188 292.248 359.664 292.248C360.185 292.248 360.616 292.452 360.956 292.86C361.319 293.245 361.5 293.721 361.5 294.288C361.5 294.855 361.307 295.331 360.922 295.716C360.559 296.101 360.129 296.294 359.63 296.294ZM372.864 317.544C371.731 317.544 370.722 317.385 369.838 317.068C368.954 316.773 368.229 316.433 367.662 316.048L367.798 317.238H366.37L366.166 311.39H367.22C367.266 312.319 367.526 313.158 368.002 313.906C368.478 314.631 369.09 315.198 369.838 315.606C370.586 316.014 371.391 316.218 372.252 316.218C372.842 316.218 373.42 316.127 373.986 315.946C374.553 315.742 375.029 315.447 375.414 315.062C375.8 314.654 375.992 314.144 375.992 313.532C375.992 312.897 375.8 312.376 375.414 311.968C375.052 311.537 374.564 311.163 373.952 310.846C373.34 310.529 372.683 310.234 371.98 309.962C371.3 309.69 370.62 309.407 369.94 309.112C369.26 308.817 368.626 308.466 368.036 308.058C367.47 307.65 367.016 307.151 366.676 306.562C366.336 305.973 366.166 305.247 366.166 304.386C366.166 303.91 366.257 303.389 366.438 302.822C366.62 302.255 366.926 301.723 367.356 301.224C367.787 300.703 368.376 300.283 369.124 299.966C369.872 299.626 370.824 299.456 371.98 299.456C372.592 299.456 373.272 299.558 374.02 299.762C374.768 299.966 375.494 300.351 376.196 300.918L376.128 299.626H377.556V305.576H376.468C376.423 304.783 376.242 304.023 375.924 303.298C375.607 302.55 375.142 301.938 374.53 301.462C373.918 300.963 373.125 300.714 372.15 300.714C371.108 300.714 370.292 300.975 369.702 301.496C369.113 302.017 368.818 302.618 368.818 303.298C368.818 304.001 369.034 304.59 369.464 305.066C369.918 305.519 370.496 305.916 371.198 306.256C371.901 306.596 372.649 306.925 373.442 307.242C374.304 307.605 375.142 308.001 375.958 308.432C376.774 308.863 377.443 309.407 377.964 310.064C378.486 310.699 378.746 311.526 378.746 312.546C378.746 313.679 378.452 314.62 377.862 315.368C377.296 316.116 376.559 316.66 375.652 317C374.768 317.363 373.839 317.544 372.864 317.544ZM388.025 317.544C387.503 317.544 386.971 317.465 386.427 317.306C385.883 317.17 385.373 316.887 384.897 316.456C384.443 316.025 384.081 315.402 383.809 314.586C383.537 313.747 383.401 312.648 383.401 311.288L383.469 301.428L380.851 301.462V300C381.44 299.977 382.041 299.762 382.653 299.354C383.265 298.923 383.809 298.345 384.285 297.62C384.783 296.895 385.123 296.101 385.305 295.24H386.461V300H392.173V301.326L386.461 301.394L386.393 310.846C386.393 311.866 386.472 312.739 386.631 313.464C386.812 314.167 387.095 314.699 387.481 315.062C387.866 315.425 388.365 315.606 388.977 315.606C389.611 315.606 390.201 315.425 390.745 315.062C391.311 314.699 391.81 314.201 392.241 313.566L393.159 314.314C392.66 315.062 392.161 315.651 391.663 316.082C391.187 316.513 390.722 316.83 390.269 317.034C389.815 317.261 389.396 317.397 389.011 317.442C388.625 317.51 388.297 317.544 388.025 317.544ZM394.781 315.98C395.484 315.98 395.971 315.81 396.243 315.47C396.515 315.107 396.674 314.62 396.719 314.008C396.764 313.373 396.787 312.648 396.787 311.832V304.08C396.787 303.717 396.787 303.355 396.787 302.992C396.81 302.629 396.855 302.255 396.923 301.87C396.515 301.893 396.107 301.915 395.699 301.938C395.314 301.938 394.917 301.949 394.509 301.972V300.578H395.563C396.538 300.578 397.206 300.487 397.569 300.306C397.954 300.102 398.272 299.887 398.521 299.66H399.507C399.552 300.023 399.586 300.476 399.609 301.02C399.632 301.541 399.654 302.21 399.677 303.026C400.017 302.459 400.482 301.904 401.071 301.36C401.66 300.816 402.318 300.363 403.043 300C403.791 299.637 404.573 299.456 405.389 299.456C406.024 299.456 406.579 299.626 407.055 299.966C407.531 300.306 407.769 300.85 407.769 301.598C407.769 301.779 407.712 302.006 407.599 302.278C407.486 302.527 407.304 302.754 407.055 302.958C406.806 303.139 406.477 303.23 406.069 303.23C405.57 303.207 405.174 303.015 404.879 302.652C404.584 302.267 404.471 301.825 404.539 301.326C403.972 301.303 403.383 301.451 402.771 301.768C402.182 302.085 401.626 302.527 401.105 303.094C400.584 303.638 400.119 304.284 399.711 305.032L399.745 313.396C399.745 313.849 399.734 314.257 399.711 314.62C399.711 314.96 399.677 315.323 399.609 315.708C399.972 315.685 400.323 315.674 400.663 315.674C401.026 315.651 401.388 315.629 401.751 315.606V317H394.781V315.98ZM412.673 326.214C411.97 326.214 411.369 326.044 410.871 325.704C410.372 325.364 410.123 324.843 410.123 324.14C410.123 323.732 410.259 323.358 410.531 323.018C410.803 322.678 411.154 322.508 411.585 322.508C412.129 322.485 412.491 322.655 412.673 323.018C412.877 323.381 412.979 323.698 412.979 323.97C412.979 324.038 412.979 324.106 412.979 324.174C412.979 324.265 412.967 324.355 412.945 324.446C413.013 324.491 413.137 324.514 413.319 324.514C413.591 324.514 413.885 324.401 414.203 324.174C414.52 323.947 414.803 323.619 415.053 323.188C415.347 322.689 415.687 321.941 416.073 320.944C416.481 319.947 416.934 318.757 417.433 317.374L412.129 306.018C411.539 304.749 411.109 303.74 410.837 302.992C410.587 302.244 410.417 301.689 410.327 301.326L408.695 301.394V300H415.733V301.02H415.597C414.645 301.088 414.123 301.451 414.033 302.108C413.942 302.743 414.203 303.717 414.815 305.032L418.793 313.566C419.314 312.115 419.813 310.687 420.289 309.282C420.765 307.854 421.241 306.437 421.717 305.032C421.898 304.533 422.079 304.023 422.261 303.502C422.465 302.958 422.657 302.482 422.839 302.074C423.043 301.643 423.224 301.371 423.383 301.258L421.037 301.394V300H426.375V301.02C425.536 301.337 424.901 301.87 424.471 302.618C424.063 303.343 423.643 304.284 423.213 305.44L418.963 317.306C418.283 319.21 417.659 320.819 417.093 322.134C416.526 323.471 415.903 324.48 415.223 325.16C414.543 325.863 413.693 326.214 412.673 326.214ZM221.785 342.16L222.635 342.942C221.932 343.871 221.297 344.857 220.731 345.9C220.187 346.92 219.711 347.985 219.303 349.096C218.895 350.184 218.555 351.317 218.283 352.496C218.033 353.675 217.841 354.887 217.705 356.134C217.569 357.358 217.501 358.605 217.501 359.874C217.501 361.143 217.569 362.39 217.705 363.614C217.841 364.815 218.033 365.983 218.283 367.116C218.555 368.249 218.895 369.349 219.303 370.414C219.711 371.502 220.187 372.545 220.731 373.542C221.297 374.539 221.932 375.503 222.635 376.432L221.785 377.214C220.946 376.443 220.073 375.457 219.167 374.256C218.26 373.077 217.421 371.729 216.651 370.21C215.88 368.691 215.257 367.059 214.781 365.314C214.305 363.569 214.067 361.755 214.067 359.874C214.067 357.993 214.305 356.157 214.781 354.366C215.257 352.575 215.88 350.898 216.651 349.334C217.421 347.77 218.26 346.376 219.167 345.152C220.073 343.928 220.946 342.931 221.785 342.16ZM242.712 351.782C242.485 349.651 241.737 347.997 240.468 346.818C239.221 345.639 237.612 345.05 235.64 345.05C234.439 345.05 233.305 345.311 232.24 345.832C231.197 346.331 230.279 347.056 229.486 348.008C228.693 348.96 228.069 350.105 227.616 351.442C227.163 352.779 226.936 354.287 226.936 355.964C226.936 358.095 227.344 359.976 228.16 361.608C228.976 363.24 230.075 364.509 231.458 365.416C232.841 366.323 234.371 366.776 236.048 366.776C237.521 366.776 238.972 366.447 240.4 365.79C241.828 365.11 242.995 364.135 243.902 362.866L244.786 363.58C243.811 364.917 242.757 365.949 241.624 366.674C240.491 367.399 239.357 367.887 238.224 368.136C237.113 368.408 236.093 368.544 235.164 368.544C233.464 368.544 231.9 368.238 230.472 367.626C229.067 367.014 227.843 366.164 226.8 365.076C225.78 363.965 224.987 362.685 224.42 361.234C223.876 359.761 223.604 358.174 223.604 356.474C223.604 354.865 223.842 353.301 224.318 351.782C224.817 350.263 225.553 348.892 226.528 347.668C227.503 346.444 228.727 345.469 230.2 344.744C231.696 344.019 233.43 343.656 235.402 343.656C236.671 343.656 237.873 343.826 239.006 344.166C240.139 344.506 241.227 345.027 242.27 345.73L242.1 343.894H243.936V351.782H242.712ZM266.485 351.782C266.259 349.651 265.511 347.997 264.241 346.818C262.995 345.639 261.385 345.05 259.413 345.05C258.212 345.05 257.079 345.311 256.013 345.832C254.971 346.331 254.053 347.056 253.259 348.008C252.466 348.96 251.843 350.105 251.389 351.442C250.936 352.779 250.709 354.287 250.709 355.964C250.709 358.095 251.117 359.976 251.933 361.608C252.749 363.24 253.849 364.509 255.231 365.416C256.614 366.323 258.144 366.776 259.821 366.776C261.295 366.776 262.745 366.447 264.173 365.79C265.601 365.11 266.769 364.135 267.675 362.866L268.559 363.58C267.585 364.917 266.531 365.949 265.397 366.674C264.264 367.399 263.131 367.887 261.997 368.136C260.887 368.408 259.867 368.544 258.937 368.544C257.237 368.544 255.673 368.238 254.245 367.626C252.84 367.014 251.616 366.164 250.573 365.076C249.553 363.965 248.76 362.685 248.193 361.234C247.649 359.761 247.377 358.174 247.377 356.474C247.377 354.865 247.615 353.301 248.091 351.782C248.59 350.263 249.327 348.892 250.301 347.668C251.276 346.444 252.5 345.469 253.973 344.744C255.469 344.019 257.203 343.656 259.175 343.656C260.445 343.656 261.646 343.826 262.779 344.166C263.913 344.506 265.001 345.027 266.043 345.73L265.873 343.894H267.709V351.782H266.485ZM284.275 368.34C283.278 366.073 282.269 363.818 281.249 361.574C280.229 359.307 279.232 357.018 278.257 354.706C277.94 353.981 277.622 353.255 277.305 352.53C277.01 351.782 276.716 351.034 276.421 350.286C276.149 349.538 275.866 348.79 275.571 348.042C275.571 348.291 275.56 348.541 275.537 348.79C275.537 349.039 275.537 349.289 275.537 349.538C275.514 350.354 275.48 351.34 275.435 352.496C275.412 353.629 275.378 354.853 275.333 356.168C275.288 357.46 275.254 358.763 275.231 360.078C275.208 361.37 275.186 362.594 275.163 363.75C275.14 364.249 275.118 364.747 275.095 365.246C275.095 365.745 275.072 366.209 275.027 366.64C275.458 366.617 275.877 366.595 276.285 366.572C276.716 366.549 277.146 366.527 277.577 366.504V368H271.083V366.878C271.786 366.855 272.296 366.708 272.613 366.436C272.953 366.141 273.168 365.756 273.259 365.28C273.35 364.804 273.406 364.294 273.429 363.75L274.075 348.246C274.098 347.793 274.109 347.339 274.109 346.886C274.132 346.433 274.154 345.991 274.177 345.56C273.769 345.583 273.361 345.605 272.953 345.628C272.545 345.628 272.137 345.639 271.729 345.662V344.2H276.931L282.779 357.698C283.074 358.378 283.357 359.058 283.629 359.738C283.924 360.418 284.218 361.098 284.513 361.778C284.83 362.458 285.136 363.149 285.431 363.852H285.499C285.748 363.24 286.043 362.515 286.383 361.676C286.723 360.815 287.006 360.078 287.233 359.466C288.23 356.973 289.262 354.479 290.327 351.986C291.415 349.47 292.48 346.875 293.523 344.2H298.555V345.322C297.988 345.299 297.524 345.413 297.161 345.662C296.798 345.889 296.538 346.274 296.379 346.818C296.22 347.362 296.164 348.099 296.209 349.028L297.093 364.498C297.138 364.883 297.161 365.257 297.161 365.62C297.161 365.983 297.161 366.311 297.161 366.606C297.569 366.583 297.977 366.572 298.385 366.572C298.816 366.549 299.235 366.527 299.643 366.504V368H292.027V366.878C292.73 366.855 293.251 366.685 293.591 366.368C293.931 366.051 294.135 365.597 294.203 365.008C294.294 364.419 294.316 363.693 294.271 362.832L293.591 351.612C293.568 351.249 293.546 350.887 293.523 350.524C293.5 350.161 293.478 349.799 293.455 349.436C293.432 349.073 293.41 348.711 293.387 348.348C293.319 348.507 293.24 348.677 293.149 348.858C293.081 349.039 293.013 349.232 292.945 349.436L285.295 368.34H284.275ZM302.26 377.214L301.41 376.432C302.113 375.503 302.736 374.517 303.28 373.474C303.847 372.454 304.334 371.389 304.742 370.278C305.15 369.19 305.479 368.057 305.728 366.878C306 365.699 306.204 364.498 306.34 363.274C306.476 362.027 306.544 360.769 306.544 359.5C306.544 358.231 306.476 356.995 306.34 355.794C306.204 354.57 306 353.391 305.728 352.258C305.479 351.125 305.15 350.025 304.742 348.96C304.334 347.872 303.847 346.829 303.28 345.832C302.736 344.835 302.113 343.871 301.41 342.942L302.26 342.16C303.099 342.931 303.971 343.917 304.878 345.118C305.785 346.297 306.623 347.645 307.394 349.164C308.165 350.683 308.788 352.315 309.264 354.06C309.74 355.805 309.978 357.619 309.978 359.5C309.978 361.381 309.74 363.217 309.264 365.008C308.788 366.799 308.165 368.476 307.394 370.04C306.623 371.604 305.785 372.998 304.878 374.222C303.971 375.446 303.099 376.443 302.26 377.214Z" fill="#8B2806"/>
<rect opacity="0.2" x="2" y="243" width="519" height="174" stroke="#20272C" stroke-width="4" stroke-dasharray="14 14"/>
<path d="M1023.84 59.782C1023.62 57.6513 1022.87 55.9967 1021.6 54.818C1020.35 53.6393 1018.74 53.05 1016.77 53.05C1015.57 53.05 1014.44 53.3107 1013.37 53.832C1012.33 54.3307 1011.41 55.056 1010.62 56.008C1009.83 56.96 1009.2 58.1047 1008.75 59.442C1008.3 60.7793 1008.07 62.2867 1008.07 63.964C1008.07 66.0947 1008.48 67.976 1009.29 69.608C1010.11 71.24 1011.21 72.5093 1012.59 73.416C1013.97 74.3227 1015.5 74.776 1017.18 74.776C1018.65 74.776 1020.1 74.4473 1021.53 73.79C1022.96 73.11 1024.13 72.1353 1025.03 70.866L1025.92 71.58C1024.94 72.9173 1023.89 73.9487 1022.76 74.674C1021.62 75.3993 1020.49 75.8867 1019.36 76.136C1018.25 76.408 1017.23 76.544 1016.3 76.544C1014.6 76.544 1013.03 76.238 1011.6 75.626C1010.2 75.014 1008.98 74.164 1007.93 73.076C1006.91 71.9653 1006.12 70.6847 1005.55 69.234C1005.01 67.7607 1004.74 66.174 1004.74 64.474C1004.74 62.8647 1004.97 61.3007 1005.45 59.782C1005.95 58.2633 1006.69 56.892 1007.66 55.668C1008.64 54.444 1009.86 53.4693 1011.33 52.744C1012.83 52.0187 1014.56 51.656 1016.53 51.656C1017.8 51.656 1019.01 51.826 1020.14 52.166C1021.27 52.506 1022.36 53.0273 1023.4 53.73L1023.23 51.894H1025.07V59.782H1023.84ZM1028.82 76V74.878C1029.68 74.8327 1030.27 74.64 1030.58 74.3C1030.9 73.9373 1031.07 73.45 1031.09 72.838C1031.14 72.2033 1031.16 71.4893 1031.16 70.696V56.008C1031.16 55.5547 1031.17 55.124 1031.2 54.716C1031.22 54.2853 1031.24 53.9 1031.26 53.56C1030.86 53.5827 1030.45 53.6053 1030.04 53.628C1029.63 53.6507 1029.22 53.6733 1028.82 53.696V52.2H1044.59L1044.76 58.15H1043.64C1043.64 56.8127 1043.42 55.804 1042.99 55.124C1042.56 54.4213 1042 53.9567 1041.29 53.73C1040.59 53.4807 1039.81 53.3673 1038.95 53.39L1036.47 53.458C1035.63 53.4807 1035.05 53.6847 1034.73 54.07C1034.41 54.4327 1034.23 54.92 1034.19 55.532C1034.14 56.144 1034.12 56.8467 1034.12 57.64V63.488L1040.04 63.522L1039.8 60.564H1041.29V67.738H1040.21C1040.21 66.718 1040.06 65.9927 1039.76 65.562C1039.49 65.1313 1039.06 64.8707 1038.47 64.78C1037.88 64.6893 1037.11 64.6667 1036.16 64.712L1034.12 64.814V71.954C1034.12 72.566 1034.11 73.0987 1034.09 73.552C1034.09 73.9827 1034.06 74.3453 1034.02 74.64C1034.4 74.6173 1034.79 74.606 1035.17 74.606C1035.56 74.5833 1035.94 74.5607 1036.33 74.538C1036.72 74.5153 1037.1 74.504 1037.49 74.504V76H1028.82ZM1066.01 59.782C1065.79 57.6513 1065.04 55.9967 1063.77 54.818C1062.52 53.6393 1060.91 53.05 1058.94 53.05C1057.74 53.05 1056.61 53.3107 1055.54 53.832C1054.5 54.3307 1053.58 55.056 1052.79 56.008C1051.99 56.96 1051.37 58.1047 1050.92 59.442C1050.46 60.7793 1050.24 62.2867 1050.24 63.964C1050.24 66.0947 1050.64 67.976 1051.46 69.608C1052.28 71.24 1053.38 72.5093 1054.76 73.416C1056.14 74.3227 1057.67 74.776 1059.35 74.776C1060.82 74.776 1062.27 74.4473 1063.7 73.79C1065.13 73.11 1066.3 72.1353 1067.2 70.866L1068.09 71.58C1067.11 72.9173 1066.06 73.9487 1064.92 74.674C1063.79 75.3993 1062.66 75.8867 1061.52 76.136C1060.41 76.408 1059.39 76.544 1058.46 76.544C1056.76 76.544 1055.2 76.238 1053.77 75.626C1052.37 75.014 1051.14 74.164 1050.1 73.076C1049.08 71.9653 1048.29 70.6847 1047.72 69.234C1047.18 67.7607 1046.9 66.174 1046.9 64.474C1046.9 62.8647 1047.14 61.3007 1047.62 59.782C1048.12 58.2633 1048.85 56.892 1049.83 55.668C1050.8 54.444 1052.03 53.4693 1053.5 52.744C1055 52.0187 1056.73 51.656 1058.7 51.656C1059.97 51.656 1061.17 51.826 1062.31 52.166C1063.44 52.506 1064.53 53.0273 1065.57 53.73L1065.4 51.894H1067.24V59.782H1066.01ZM1098.72 59.782C1098.49 57.6513 1097.74 55.9967 1096.47 54.818C1095.23 53.6393 1093.62 53.05 1091.65 53.05C1090.44 53.05 1089.31 53.3107 1088.25 53.832C1087.2 54.3307 1086.29 55.056 1085.49 56.008C1084.7 56.96 1084.08 58.1047 1083.62 59.442C1083.17 60.7793 1082.94 62.2867 1082.94 63.964C1082.94 66.0947 1083.35 67.976 1084.17 69.608C1084.98 71.24 1086.08 72.5093 1087.46 73.416C1088.85 74.3227 1090.38 74.776 1092.05 74.776C1093.53 74.776 1094.98 74.4473 1096.41 73.79C1097.83 73.11 1099 72.1353 1099.91 70.866L1100.79 71.58C1099.82 72.9173 1098.76 73.9487 1097.63 74.674C1096.5 75.3993 1095.36 75.8867 1094.23 76.136C1093.12 76.408 1092.1 76.544 1091.17 76.544C1089.47 76.544 1087.91 76.238 1086.48 75.626C1085.07 75.014 1083.85 74.164 1082.81 73.076C1081.79 71.9653 1080.99 70.6847 1080.43 69.234C1079.88 67.7607 1079.61 66.174 1079.61 64.474C1079.61 62.8647 1079.85 61.3007 1080.32 59.782C1080.82 58.2633 1081.56 56.892 1082.53 55.668C1083.51 54.444 1084.73 53.4693 1086.21 52.744C1087.7 52.0187 1089.44 51.656 1091.41 51.656C1092.68 51.656 1093.88 51.826 1095.01 52.166C1096.15 52.506 1097.23 53.0273 1098.28 53.73L1098.11 51.894H1099.94V59.782H1098.72ZM1111.75 76.544C1110.16 76.544 1108.72 76.1813 1107.43 75.456C1106.14 74.708 1105.11 73.688 1104.34 72.396C1103.59 71.0813 1103.21 69.5853 1103.21 67.908C1103.21 66.1173 1103.59 64.508 1104.34 63.08C1105.08 61.652 1106.1 60.53 1107.4 59.714C1108.69 58.8753 1110.14 58.456 1111.75 58.456C1113.33 58.456 1114.77 58.8413 1116.07 59.612C1117.36 60.36 1118.39 61.38 1119.16 62.672C1119.93 63.964 1120.32 65.4373 1120.32 67.092C1120.32 68.8373 1119.93 70.4353 1119.16 71.886C1118.41 73.314 1117.39 74.4473 1116.1 75.286C1114.81 76.1247 1113.36 76.544 1111.75 76.544ZM1112.02 75.184C1113.22 75.184 1114.17 74.844 1114.88 74.164C1115.58 73.484 1116.08 72.6 1116.37 71.512C1116.69 70.424 1116.85 69.2793 1116.85 68.078C1116.85 67.058 1116.75 66.0607 1116.54 65.086C1116.36 64.0887 1116.07 63.1933 1115.66 62.4C1115.25 61.584 1114.72 60.938 1114.06 60.462C1113.42 59.986 1112.65 59.748 1111.75 59.748C1110.57 59.748 1109.61 60.088 1108.86 60.768C1108.11 61.448 1107.55 62.332 1107.19 63.42C1106.85 64.508 1106.68 65.6753 1106.68 66.922C1106.68 68.3273 1106.87 69.6647 1107.26 70.934C1107.64 72.1807 1108.23 73.2007 1109.03 73.994C1109.82 74.7873 1110.82 75.184 1112.02 75.184ZM1123.2 76V74.98C1123.91 74.98 1124.39 74.81 1124.67 74.47C1124.94 74.1073 1125.1 73.62 1125.14 73.008C1125.19 72.3733 1125.21 71.648 1125.21 70.832L1125.24 63.08C1125.24 62.7173 1125.24 62.3547 1125.24 61.992C1125.27 61.6293 1125.31 61.2553 1125.38 60.87C1124.97 60.8927 1124.56 60.9153 1124.16 60.938C1123.77 60.9607 1123.37 60.9833 1122.97 61.006V59.578C1123.96 59.578 1124.71 59.5327 1125.21 59.442C1125.73 59.3513 1126.12 59.238 1126.37 59.102C1126.62 58.966 1126.82 58.8187 1126.98 58.66H1127.96C1127.99 58.8187 1128 59 1128 59.204C1128.02 59.408 1128.04 59.6347 1128.07 59.884C1128.09 60.1333 1128.1 60.4167 1128.1 60.734C1128.6 60.3033 1129.14 59.918 1129.73 59.578C1130.34 59.238 1130.98 58.966 1131.64 58.762C1132.32 58.558 1132.98 58.456 1133.64 58.456C1135.61 58.456 1137.05 59.0793 1137.96 60.326C1138.87 61.55 1139.32 63.4653 1139.32 66.072V72.396C1139.32 72.8493 1139.31 73.2573 1139.29 73.62C1139.29 73.96 1139.25 74.3227 1139.18 74.708C1139.55 74.6853 1139.9 74.674 1140.24 74.674C1140.6 74.6513 1140.96 74.6287 1141.33 74.606V76H1134.39V74.98C1135.09 74.98 1135.58 74.81 1135.85 74.47C1136.12 74.1073 1136.28 73.62 1136.33 73.008C1136.37 72.3733 1136.4 71.648 1136.4 70.832V66.072C1136.37 64.1227 1136.04 62.6493 1135.41 61.652C1134.8 60.6547 1133.82 60.1673 1132.49 60.19C1131.67 60.2127 1130.87 60.428 1130.07 60.836C1129.3 61.244 1128.66 61.7653 1128.13 62.4C1128.16 62.5813 1128.17 62.7853 1128.17 63.012C1128.17 63.2387 1128.17 63.4767 1128.17 63.726L1128.13 72.396C1128.13 72.8493 1128.12 73.2573 1128.1 73.62C1128.1 73.96 1128.07 74.3227 1128 74.708C1128.36 74.6853 1128.71 74.674 1129.05 74.674C1129.41 74.6513 1129.78 74.6287 1130.14 74.606V76H1123.2ZM1143.86 76V74.98C1144.56 74.98 1145.05 74.81 1145.32 74.47C1145.59 74.1073 1145.75 73.62 1145.79 73.008C1145.84 72.3733 1145.86 71.648 1145.86 70.832L1145.9 63.08C1145.9 62.7173 1145.9 62.3547 1145.9 61.992C1145.92 61.6293 1145.96 61.2553 1146.03 60.87C1145.62 60.8927 1145.22 60.9153 1144.81 60.938C1144.42 60.9607 1144.03 60.9833 1143.62 61.006V59.578C1144.62 59.578 1145.36 59.5327 1145.86 59.442C1146.38 59.3513 1146.77 59.238 1147.02 59.102C1147.27 58.966 1147.47 58.8187 1147.63 58.66H1148.62C1148.64 58.8187 1148.65 59 1148.65 59.204C1148.67 59.408 1148.7 59.6347 1148.72 59.884C1148.74 60.1333 1148.75 60.4167 1148.75 60.734C1149.25 60.3033 1149.8 59.918 1150.38 59.578C1151 59.238 1151.63 58.966 1152.29 58.762C1152.97 58.558 1153.64 58.456 1154.29 58.456C1156.27 58.456 1157.71 59.0793 1158.61 60.326C1159.52 61.55 1159.97 63.4653 1159.97 66.072V72.396C1159.97 72.8493 1159.96 73.2573 1159.94 73.62C1159.94 73.96 1159.9 74.3227 1159.84 74.708C1160.2 74.6853 1160.55 74.674 1160.89 74.674C1161.25 74.6513 1161.62 74.6287 1161.98 74.606V76H1155.04V74.98C1155.75 74.98 1156.23 74.81 1156.5 74.47C1156.78 74.1073 1156.94 73.62 1156.98 73.008C1157.03 72.3733 1157.05 71.648 1157.05 70.832V66.072C1157.03 64.1227 1156.7 62.6493 1156.06 61.652C1155.45 60.6547 1154.48 60.1673 1153.14 60.19C1152.32 60.2127 1151.52 60.428 1150.72 60.836C1149.95 61.244 1149.31 61.7653 1148.79 62.4C1148.81 62.5813 1148.82 62.7853 1148.82 63.012C1148.82 63.2387 1148.82 63.4767 1148.82 63.726L1148.79 72.396C1148.79 72.8493 1148.78 73.2573 1148.75 73.62C1148.75 73.96 1148.72 74.3227 1148.65 74.708C1149.01 74.6853 1149.36 74.674 1149.7 74.674C1150.07 74.6513 1150.43 74.6287 1150.79 74.606V76H1143.86ZM1172.74 76.544C1171.17 76.544 1169.76 76.1813 1168.49 75.456C1167.24 74.708 1166.25 73.6653 1165.53 72.328C1164.8 70.968 1164.44 69.37 1164.44 67.534C1164.44 65.9473 1164.79 64.4627 1165.49 63.08C1166.22 61.6973 1167.23 60.5867 1168.52 59.748C1169.81 58.8867 1171.31 58.456 1173.01 58.456C1173.96 58.456 1174.84 58.6147 1175.66 58.932C1176.5 59.2267 1177.24 59.6913 1177.87 60.326C1178.51 60.938 1179 61.72 1179.37 62.672C1179.73 63.6013 1179.91 64.7007 1179.91 65.97L1167.94 66.174C1167.94 67.8967 1168.12 69.4153 1168.49 70.73C1168.87 72.022 1169.48 73.0307 1170.32 73.756C1171.16 74.4587 1172.24 74.81 1173.55 74.81C1174.26 74.81 1174.97 74.6853 1175.69 74.436C1176.44 74.1867 1177.13 73.8467 1177.77 73.416C1178.4 72.9853 1178.91 72.5093 1179.3 71.988L1180.11 72.668C1179.5 73.62 1178.77 74.3793 1177.9 74.946C1177.04 75.5127 1176.16 75.9207 1175.25 76.17C1174.35 76.4193 1173.51 76.544 1172.74 76.544ZM1168.04 64.746H1176.71C1176.71 63.93 1176.59 63.148 1176.34 62.4C1176.11 61.6293 1175.73 61.006 1175.18 60.53C1174.64 60.0313 1173.93 59.782 1173.04 59.782C1171.73 59.782 1170.63 60.1787 1169.74 60.972C1168.88 61.7427 1168.32 63.0007 1168.04 64.746ZM1191.07 76.544C1189.55 76.544 1188.14 76.204 1186.85 75.524C1185.58 74.8213 1184.56 73.824 1183.79 72.532C1183.04 71.2173 1182.67 69.642 1182.67 67.806C1182.67 66.6273 1182.88 65.4827 1183.31 64.372C1183.75 63.2613 1184.35 62.264 1185.12 61.38C1185.91 60.4733 1186.85 59.7593 1187.94 59.238C1189.03 58.7167 1190.23 58.456 1191.54 58.456C1192.81 58.456 1193.91 58.6487 1194.84 59.034C1195.79 59.4193 1196.53 59.9293 1197.05 60.564C1197.57 61.1987 1197.83 61.89 1197.83 62.638C1197.83 63.1367 1197.7 63.5673 1197.42 63.93C1197.15 64.27 1196.76 64.44 1196.23 64.44C1195.67 64.4627 1195.26 64.2927 1195.01 63.93C1194.78 63.5447 1194.67 63.2047 1194.67 62.91C1194.67 62.6833 1194.7 62.4567 1194.77 62.23C1194.84 61.9807 1194.98 61.754 1195.18 61.55C1195 61.006 1194.68 60.6093 1194.23 60.36C1193.78 60.088 1193.3 59.918 1192.8 59.85C1192.32 59.7593 1191.93 59.714 1191.61 59.714C1190.07 59.714 1188.77 60.3373 1187.7 61.584C1186.66 62.808 1186.14 64.5987 1186.14 66.956C1186.14 68.4747 1186.37 69.8233 1186.85 71.002C1187.35 72.1807 1188.04 73.11 1188.92 73.79C1189.81 74.4473 1190.83 74.776 1191.98 74.776C1193.05 74.776 1194.07 74.4927 1195.04 73.926C1196.02 73.3593 1196.78 72.668 1197.32 71.852L1198.21 72.532C1197.62 73.484 1196.9 74.2547 1196.06 74.844C1195.25 75.4333 1194.4 75.864 1193.51 76.136C1192.65 76.408 1191.84 76.544 1191.07 76.544ZM1207.09 76.544C1206.57 76.544 1206.04 76.4647 1205.49 76.306C1204.95 76.17 1204.44 75.8867 1203.96 75.456C1203.51 75.0253 1203.15 74.402 1202.88 73.586C1202.6 72.7473 1202.47 71.648 1202.47 70.288L1202.54 60.428L1199.92 60.462V59C1200.51 58.9773 1201.11 58.762 1201.72 58.354C1202.33 57.9233 1202.88 57.3453 1203.35 56.62C1203.85 55.8947 1204.19 55.1013 1204.37 54.24H1205.53V59H1211.24V60.326L1205.53 60.394L1205.46 69.846C1205.46 70.866 1205.54 71.7387 1205.7 72.464C1205.88 73.1667 1206.16 73.6993 1206.55 74.062C1206.93 74.4247 1207.43 74.606 1208.04 74.606C1208.68 74.606 1209.27 74.4247 1209.81 74.062C1210.38 73.6993 1210.88 73.2007 1211.31 72.566L1212.23 73.314C1211.73 74.062 1211.23 74.6513 1210.73 75.082C1210.25 75.5127 1209.79 75.83 1209.34 76.034C1208.88 76.2607 1208.46 76.3967 1208.08 76.442C1207.69 76.51 1207.36 76.544 1207.09 76.544ZM1234.44 76.544C1232.18 76.544 1230.17 76.068 1228.42 75.116C1226.68 74.164 1225.32 72.7927 1224.34 71.002C1223.37 69.2113 1222.88 67.0807 1222.88 64.61C1222.88 63.0007 1223.12 61.4367 1223.6 59.918C1224.09 58.3767 1224.83 56.9827 1225.81 55.736C1226.8 54.4893 1228.04 53.5033 1229.51 52.778C1231.01 52.03 1232.74 51.656 1234.71 51.656C1235.53 51.656 1236.36 51.7353 1237.2 51.894C1238.03 52.03 1238.84 52.2453 1239.61 52.54C1240.4 52.812 1241.12 53.1407 1241.75 53.526L1241.62 51.894H1243.49V59.68H1242.26C1242.17 58.252 1241.79 57.0507 1241.11 56.076C1240.45 55.0787 1239.59 54.3193 1238.52 53.798C1237.46 53.2767 1236.27 53.016 1234.95 53.016C1233.75 53.016 1232.62 53.288 1231.55 53.832C1230.51 54.3533 1229.58 55.1013 1228.76 56.076C1227.97 57.028 1227.35 58.1613 1226.89 59.476C1226.44 60.7907 1226.21 62.2413 1226.21 63.828C1226.21 65.9587 1226.6 67.8627 1227.37 69.54C1228.14 71.2173 1229.21 72.532 1230.57 73.484C1231.95 74.436 1233.54 74.912 1235.33 74.912C1235.94 74.912 1236.57 74.8553 1237.23 74.742C1237.91 74.6287 1238.58 74.4473 1239.24 74.198C1239.92 73.926 1240.55 73.5973 1241.14 73.212V69.064C1241.14 68.52 1241.14 67.976 1241.14 67.432C1241.14 66.8653 1241.14 66.31 1241.14 65.766C1240.75 65.7887 1240.36 65.8113 1239.95 65.834C1239.54 65.8567 1239.15 65.8793 1238.76 65.902V64.406H1246.44V65.528C1245.81 65.528 1245.32 65.698 1244.98 66.038C1244.64 66.3553 1244.4 66.752 1244.27 67.228C1244.13 67.6813 1244.05 68.1347 1244.03 68.588C1244.01 69.0187 1244 69.3473 1244 69.574V74.776H1243.08C1242.72 74.776 1242.22 74.844 1241.58 74.98C1240.95 75.116 1240.22 75.3427 1239.41 75.66C1238.7 75.932 1237.89 76.1473 1236.96 76.306C1236.03 76.4647 1235.19 76.544 1234.44 76.544ZM1248.65 74.98C1249.35 74.98 1249.84 74.81 1250.11 74.47C1250.38 74.1073 1250.54 73.62 1250.58 73.008C1250.63 72.3733 1250.65 71.648 1250.65 70.832V63.08C1250.65 62.7173 1250.65 62.3547 1250.65 61.992C1250.67 61.6293 1250.72 61.2553 1250.79 60.87C1250.38 60.8927 1249.97 60.9153 1249.56 60.938C1249.18 60.938 1248.78 60.9493 1248.37 60.972V59.578H1249.43C1250.4 59.578 1251.07 59.4873 1251.43 59.306C1251.82 59.102 1252.14 58.8867 1252.39 58.66H1253.37C1253.42 59.0227 1253.45 59.476 1253.47 60.02C1253.5 60.5413 1253.52 61.21 1253.54 62.026C1253.88 61.4593 1254.35 60.904 1254.94 60.36C1255.52 59.816 1256.18 59.3627 1256.91 59C1257.66 58.6373 1258.44 58.456 1259.25 58.456C1259.89 58.456 1260.44 58.626 1260.92 58.966C1261.4 59.306 1261.63 59.85 1261.63 60.598C1261.63 60.7793 1261.58 61.006 1261.46 61.278C1261.35 61.5273 1261.17 61.754 1260.92 61.958C1260.67 62.1393 1260.34 62.23 1259.93 62.23C1259.43 62.2073 1259.04 62.0147 1258.74 61.652C1258.45 61.2667 1258.34 60.8247 1258.4 60.326C1257.84 60.3033 1257.25 60.4507 1256.64 60.768C1256.05 61.0853 1255.49 61.5273 1254.97 62.094C1254.45 62.638 1253.98 63.284 1253.58 64.032L1253.61 72.396C1253.61 72.8493 1253.6 73.2573 1253.58 73.62C1253.58 73.96 1253.54 74.3227 1253.47 74.708C1253.84 74.6853 1254.19 74.674 1254.53 74.674C1254.89 74.6513 1255.25 74.6287 1255.62 74.606V76H1248.65V74.98ZM1271.55 76.544C1269.97 76.544 1268.53 76.1813 1267.24 75.456C1265.94 74.708 1264.91 73.688 1264.14 72.396C1263.39 71.0813 1263.02 69.5853 1263.02 67.908C1263.02 66.1173 1263.39 64.508 1264.14 63.08C1264.89 61.652 1265.91 60.53 1267.2 59.714C1268.49 58.8753 1269.94 58.456 1271.55 58.456C1273.14 58.456 1274.58 58.8413 1275.87 59.612C1277.16 60.36 1278.2 61.38 1278.97 62.672C1279.74 63.964 1280.12 65.4373 1280.12 67.092C1280.12 68.8373 1279.74 70.4353 1278.97 71.886C1278.22 73.314 1277.2 74.4473 1275.91 75.286C1274.61 76.1247 1273.16 76.544 1271.55 76.544ZM1271.83 75.184C1273.03 75.184 1273.98 74.844 1274.68 74.164C1275.38 73.484 1275.88 72.6 1276.18 71.512C1276.5 70.424 1276.65 69.2793 1276.65 68.078C1276.65 67.058 1276.55 66.0607 1276.35 65.086C1276.17 64.0887 1275.87 63.1933 1275.46 62.4C1275.06 61.584 1274.52 60.938 1273.87 60.462C1273.23 59.986 1272.46 59.748 1271.55 59.748C1270.38 59.748 1269.41 60.088 1268.66 60.768C1267.92 61.448 1267.36 62.332 1267 63.42C1266.66 64.508 1266.49 65.6753 1266.49 66.922C1266.49 68.3273 1266.68 69.6647 1267.07 70.934C1267.45 72.1807 1268.04 73.2007 1268.83 73.994C1269.63 74.7873 1270.62 75.184 1271.83 75.184ZM1290.18 76.544C1288.96 76.544 1287.93 76.3173 1287.09 75.864C1286.27 75.4107 1285.65 74.64 1285.22 73.552C1284.81 72.464 1284.61 70.9907 1284.61 69.132V63.08C1284.61 62.7173 1284.61 62.3547 1284.61 61.992C1284.63 61.6293 1284.68 61.2553 1284.74 60.87C1284.36 60.8927 1283.96 60.9153 1283.55 60.938C1283.17 60.938 1282.78 60.9493 1282.4 60.972V59.578H1283.45C1284.43 59.578 1285.13 59.4873 1285.56 59.306C1286.01 59.102 1286.37 58.8867 1286.61 58.66H1287.6V69.03C1287.6 70.9793 1287.87 72.4413 1288.42 73.416C1288.98 74.368 1289.94 74.8327 1291.27 74.81C1292.13 74.7873 1292.95 74.5267 1293.72 74.028C1294.51 73.5067 1295.15 72.8947 1295.62 72.192V63.454C1295.62 62.91 1295.64 62.4453 1295.66 62.06C1295.68 61.652 1295.73 61.2553 1295.79 60.87C1295.39 60.8927 1294.98 60.9153 1294.57 60.938C1294.16 60.938 1293.75 60.9493 1293.35 60.972V59.578H1294.4C1295.38 59.578 1296.08 59.4873 1296.51 59.306C1296.96 59.102 1297.31 58.8867 1297.56 58.66H1298.55L1298.51 71.512C1298.51 71.8747 1298.5 72.3847 1298.48 73.042C1298.46 73.6993 1298.42 74.2547 1298.38 74.708C1298.79 74.6853 1299.19 74.6627 1299.6 74.64C1300.01 74.6173 1300.42 74.5947 1300.83 74.572V76H1295.96C1295.9 75.6147 1295.84 75.252 1295.79 74.912C1295.77 74.572 1295.75 74.2547 1295.73 73.96C1295.02 74.6627 1294.17 75.2747 1293.18 75.796C1292.18 76.2947 1291.18 76.544 1290.18 76.544ZM1302.99 84.67V83.65C1303.69 83.65 1304.18 83.4687 1304.45 83.106C1304.73 82.766 1304.88 82.2787 1304.93 81.644C1304.98 81.032 1305 80.318 1305 79.502L1305.07 63.08C1305.07 62.7173 1305.07 62.3547 1305.07 61.992C1305.09 61.6293 1305.13 61.2553 1305.2 60.87C1304.79 60.8927 1304.39 60.9153 1303.98 60.938C1303.59 60.9607 1303.2 60.9833 1302.79 61.006V59.578C1303.79 59.578 1304.53 59.5327 1305.03 59.442C1305.55 59.3513 1305.93 59.238 1306.15 59.102C1306.4 58.966 1306.61 58.8187 1306.77 58.66H1307.79C1307.81 58.8867 1307.83 59.1587 1307.85 59.476C1307.88 59.7707 1307.9 60.1107 1307.92 60.496C1308.6 59.884 1309.41 59.3967 1310.34 59.034C1311.29 58.6487 1312.24 58.456 1313.19 58.456C1314.51 58.456 1315.73 58.796 1316.86 59.476C1318 60.156 1318.92 61.1307 1319.62 62.4C1320.32 63.6467 1320.67 65.1427 1320.67 66.888C1320.67 68.8147 1320.26 70.5033 1319.45 71.954C1318.65 73.4047 1317.6 74.538 1316.29 75.354C1314.97 76.1473 1313.54 76.544 1312 76.544C1311.21 76.544 1310.47 76.442 1309.79 76.238C1309.13 76.0567 1308.51 75.7847 1307.92 75.422V81.066C1307.92 81.5193 1307.91 81.916 1307.89 82.256C1307.89 82.6187 1307.85 82.9927 1307.79 83.378C1308.15 83.3553 1308.5 83.3327 1308.84 83.31C1309.2 83.31 1309.57 83.2987 1309.93 83.276V84.67H1302.99ZM1311.93 75.184C1313.02 75.184 1313.95 74.8553 1314.72 74.198C1315.52 73.518 1316.12 72.6 1316.52 71.444C1316.95 70.2653 1317.17 68.928 1317.17 67.432C1317.17 66.208 1316.99 65.0407 1316.63 63.93C1316.29 62.7967 1315.73 61.8787 1314.96 61.176C1314.21 60.4733 1313.21 60.122 1311.97 60.122C1311.2 60.122 1310.45 60.3147 1309.72 60.7C1309.02 61.0627 1308.43 61.5047 1307.96 62.026C1307.96 62.1167 1307.96 62.2527 1307.96 62.434C1307.98 62.5927 1307.99 62.8873 1307.99 63.318C1307.99 63.726 1307.99 64.3493 1307.99 65.188C1307.99 66.004 1307.98 67.1147 1307.96 68.52C1307.96 69.9253 1307.96 71.7047 1307.96 73.858C1308.52 74.2887 1309.13 74.6173 1309.79 74.844C1310.47 75.0707 1311.19 75.184 1311.93 75.184ZM1330.55 76.544C1329.42 76.544 1328.41 76.3853 1327.53 76.068C1326.64 75.7733 1325.92 75.4333 1325.35 75.048L1325.49 76.238H1324.06L1323.86 70.39H1324.91C1324.96 71.3193 1325.22 72.158 1325.69 72.906C1326.17 73.6313 1326.78 74.198 1327.53 74.606C1328.28 75.014 1329.08 75.218 1329.94 75.218C1330.53 75.218 1331.11 75.1273 1331.68 74.946C1332.24 74.742 1332.72 74.4473 1333.1 74.062C1333.49 73.654 1333.68 73.144 1333.68 72.532C1333.68 71.8973 1333.49 71.376 1333.1 70.968C1332.74 70.5373 1332.25 70.1633 1331.64 69.846C1331.03 69.5287 1330.37 69.234 1329.67 68.962C1328.99 68.69 1328.31 68.4067 1327.63 68.112C1326.95 67.8173 1326.32 67.466 1325.73 67.058C1325.16 66.65 1324.71 66.1513 1324.37 65.562C1324.03 64.9727 1323.86 64.2473 1323.86 63.386C1323.86 62.91 1323.95 62.3887 1324.13 61.822C1324.31 61.2553 1324.62 60.7227 1325.05 60.224C1325.48 59.7027 1326.07 59.2833 1326.81 58.966C1327.56 58.626 1328.51 58.456 1329.67 58.456C1330.28 58.456 1330.96 58.558 1331.71 58.762C1332.46 58.966 1333.18 59.3513 1333.89 59.918L1333.82 58.626H1335.25V64.576H1334.16C1334.11 63.7827 1333.93 63.0233 1333.61 62.298C1333.3 61.55 1332.83 60.938 1332.22 60.462C1331.61 59.9633 1330.82 59.714 1329.84 59.714C1328.8 59.714 1327.98 59.9747 1327.39 60.496C1326.8 61.0173 1326.51 61.618 1326.51 62.298C1326.51 63.0007 1326.72 63.59 1327.15 64.066C1327.61 64.5193 1328.19 64.916 1328.89 65.256C1329.59 65.596 1330.34 65.9247 1331.13 66.242C1331.99 66.6047 1332.83 67.0013 1333.65 67.432C1334.46 67.8627 1335.13 68.4067 1335.65 69.064C1336.18 69.6987 1336.44 70.526 1336.44 71.546C1336.44 72.6793 1336.14 73.62 1335.55 74.368C1334.99 75.116 1334.25 75.66 1333.34 76C1332.46 76.3627 1331.53 76.544 1330.55 76.544ZM1145.04 101.16L1145.89 101.942C1145.19 102.871 1144.56 103.857 1143.99 104.9C1143.45 105.92 1142.97 106.985 1142.56 108.096C1142.15 109.184 1141.81 110.317 1141.54 111.496C1141.29 112.675 1141.1 113.887 1140.96 115.134C1140.83 116.358 1140.76 117.605 1140.76 118.874C1140.76 120.143 1140.83 121.39 1140.96 122.614C1141.1 123.815 1141.29 124.983 1141.54 126.116C1141.81 127.249 1142.15 128.349 1142.56 129.414C1142.97 130.502 1143.45 131.545 1143.99 132.542C1144.56 133.539 1145.19 134.503 1145.89 135.432L1145.04 136.214C1144.2 135.443 1143.33 134.457 1142.43 133.256C1141.52 132.077 1140.68 130.729 1139.91 129.21C1139.14 127.691 1138.52 126.059 1138.04 124.314C1137.56 122.569 1137.33 120.755 1137.33 118.874C1137.33 116.993 1137.56 115.157 1138.04 113.366C1138.52 111.575 1139.14 109.898 1139.91 108.334C1140.68 106.77 1141.52 105.376 1142.43 104.152C1143.33 102.928 1144.2 101.931 1145.04 101.16ZM1165.97 110.782C1165.74 108.651 1165 106.997 1163.73 105.818C1162.48 104.639 1160.87 104.05 1158.9 104.05C1157.7 104.05 1156.56 104.311 1155.5 104.832C1154.46 105.331 1153.54 106.056 1152.74 107.008C1151.95 107.96 1151.33 109.105 1150.87 110.442C1150.42 111.779 1150.19 113.287 1150.19 114.964C1150.19 117.095 1150.6 118.976 1151.42 120.608C1152.23 122.24 1153.33 123.509 1154.72 124.416C1156.1 125.323 1157.63 125.776 1159.31 125.776C1160.78 125.776 1162.23 125.447 1163.66 124.79C1165.09 124.11 1166.25 123.135 1167.16 121.866L1168.04 122.58C1167.07 123.917 1166.02 124.949 1164.88 125.674C1163.75 126.399 1162.62 126.887 1161.48 127.136C1160.37 127.408 1159.35 127.544 1158.42 127.544C1156.72 127.544 1155.16 127.238 1153.73 126.626C1152.33 126.014 1151.1 125.164 1150.06 124.076C1149.04 122.965 1148.25 121.685 1147.68 120.234C1147.13 118.761 1146.86 117.174 1146.86 115.474C1146.86 113.865 1147.1 112.301 1147.58 110.782C1148.08 109.263 1148.81 107.892 1149.79 106.668C1150.76 105.444 1151.99 104.469 1153.46 103.744C1154.95 103.019 1156.69 102.656 1158.66 102.656C1159.93 102.656 1161.13 102.826 1162.26 103.166C1163.4 103.506 1164.49 104.027 1165.53 104.73L1165.36 102.894H1167.19V110.782H1165.97ZM1182.23 127.544C1179.96 127.544 1177.96 127.068 1176.21 126.116C1174.47 125.164 1173.11 123.793 1172.13 122.002C1171.16 120.211 1170.67 118.081 1170.67 115.61C1170.67 114.001 1170.91 112.437 1171.38 110.918C1171.88 109.377 1172.62 107.983 1173.59 106.736C1174.59 105.489 1175.83 104.503 1177.3 103.778C1178.8 103.03 1180.53 102.656 1182.5 102.656C1183.32 102.656 1184.15 102.735 1184.98 102.894C1185.82 103.03 1186.63 103.245 1187.4 103.54C1188.19 103.812 1188.91 104.141 1189.54 104.526L1189.4 102.894H1191.27V110.68H1190.05C1189.96 109.252 1189.57 108.051 1188.89 107.076C1188.24 106.079 1187.38 105.319 1186.31 104.798C1185.24 104.277 1184.05 104.016 1182.74 104.016C1181.54 104.016 1180.41 104.288 1179.34 104.832C1178.3 105.353 1177.37 106.101 1176.55 107.076C1175.76 108.028 1175.14 109.161 1174.68 110.476C1174.23 111.791 1174 113.241 1174 114.828C1174 116.959 1174.39 118.863 1175.16 120.54C1175.93 122.217 1176.99 123.532 1178.35 124.484C1179.74 125.436 1181.32 125.912 1183.11 125.912C1183.73 125.912 1184.36 125.855 1185.02 125.742C1185.7 125.629 1186.37 125.447 1187.02 125.198C1187.7 124.926 1188.34 124.597 1188.93 124.212V120.064C1188.93 119.52 1188.93 118.976 1188.93 118.432C1188.93 117.865 1188.93 117.31 1188.93 116.766C1188.54 116.789 1188.15 116.811 1187.74 116.834C1187.33 116.857 1186.93 116.879 1186.55 116.902V115.406H1194.23V116.528C1193.6 116.528 1193.11 116.698 1192.77 117.038C1192.43 117.355 1192.19 117.752 1192.06 118.228C1191.92 118.681 1191.84 119.135 1191.82 119.588C1191.8 120.019 1191.78 120.347 1191.78 120.574V125.776H1190.87C1190.5 125.776 1190 125.844 1189.37 125.98C1188.74 126.116 1188.01 126.343 1187.19 126.66C1186.49 126.932 1185.68 127.147 1184.75 127.306C1183.82 127.465 1182.98 127.544 1182.23 127.544ZM1196 136.214L1195.15 135.432C1195.85 134.503 1196.48 133.517 1197.02 132.474C1197.59 131.454 1198.08 130.389 1198.48 129.278C1198.89 128.19 1199.22 127.057 1199.47 125.878C1199.74 124.699 1199.95 123.498 1200.08 122.274C1200.22 121.027 1200.29 119.769 1200.29 118.5C1200.29 117.231 1200.22 115.995 1200.08 114.794C1199.95 113.57 1199.74 112.391 1199.47 111.258C1199.22 110.125 1198.89 109.025 1198.48 107.96C1198.08 106.872 1197.59 105.829 1197.02 104.832C1196.48 103.835 1195.85 102.871 1195.15 101.942L1196 101.16C1196.84 101.931 1197.71 102.917 1198.62 104.118C1199.53 105.297 1200.36 106.645 1201.14 108.164C1201.91 109.683 1202.53 111.315 1203.01 113.06C1203.48 114.805 1203.72 116.619 1203.72 118.5C1203.72 120.381 1203.48 122.217 1203.01 124.008C1202.53 125.799 1201.91 127.476 1201.14 129.04C1200.36 130.604 1199.53 131.998 1198.62 133.222C1197.71 134.446 1196.84 135.443 1196 136.214Z" fill="#8B2806"/>
<rect opacity="0.2" x="911" y="2" width="519" height="174" stroke="#20272C" stroke-width="4" stroke-dasharray="14 14"/>
<path d="M980.699 540.782C980.473 538.651 979.725 536.997 978.455 535.818C977.209 534.639 975.599 534.05 973.627 534.05C972.426 534.05 971.293 534.311 970.227 534.832C969.185 535.331 968.267 536.056 967.473 537.008C966.68 537.96 966.057 539.105 965.603 540.442C965.15 541.779 964.923 543.287 964.923 544.964C964.923 547.095 965.331 548.976 966.147 550.608C966.963 552.24 968.063 553.509 969.445 554.416C970.828 555.323 972.358 555.776 974.035 555.776C975.509 555.776 976.959 555.447 978.387 554.79C979.815 554.11 980.983 553.135 981.889 551.866L982.773 552.58C981.799 553.917 980.745 554.949 979.611 555.674C978.478 556.399 977.345 556.887 976.211 557.136C975.101 557.408 974.081 557.544 973.151 557.544C971.451 557.544 969.887 557.238 968.459 556.626C967.054 556.014 965.83 555.164 964.787 554.076C963.767 552.965 962.974 551.685 962.407 550.234C961.863 548.761 961.591 547.174 961.591 545.474C961.591 543.865 961.829 542.301 962.305 540.782C962.804 539.263 963.541 537.892 964.515 536.668C965.49 535.444 966.714 534.469 968.187 533.744C969.683 533.019 971.417 532.656 973.389 532.656C974.659 532.656 975.86 532.826 976.993 533.166C978.127 533.506 979.215 534.027 980.257 534.73L980.087 532.894H981.923V540.782H980.699ZM985.671 557V555.878C986.532 555.833 987.121 555.64 987.439 555.3C987.756 554.937 987.926 554.45 987.949 553.838C987.994 553.203 988.017 552.489 988.017 551.696V537.008C988.017 536.555 988.028 536.124 988.051 535.716C988.073 535.285 988.096 534.9 988.119 534.56C987.711 534.583 987.303 534.605 986.895 534.628C986.487 534.651 986.079 534.673 985.671 534.696V533.2H1001.45L1001.62 539.15H1000.49C1000.49 537.813 1000.28 536.804 999.849 536.124C999.418 535.421 998.851 534.957 998.149 534.73C997.446 534.481 996.664 534.367 995.803 534.39L993.321 534.458C992.482 534.481 991.904 534.685 991.587 535.07C991.269 535.433 991.088 535.92 991.043 536.532C990.997 537.144 990.975 537.847 990.975 538.64V544.488L996.891 544.522L996.653 541.564H998.149V548.738H997.061C997.061 547.718 996.913 546.993 996.619 546.562C996.347 546.131 995.916 545.871 995.327 545.78C994.737 545.689 993.967 545.667 993.015 545.712L990.975 545.814V552.954C990.975 553.566 990.963 554.099 990.941 554.552C990.941 554.983 990.918 555.345 990.873 555.64C991.258 555.617 991.643 555.606 992.029 555.606C992.414 555.583 992.799 555.561 993.185 555.538C993.57 555.515 993.955 555.504 994.341 555.504V557H985.671ZM1022.87 540.782C1022.64 538.651 1021.89 536.997 1020.62 535.818C1019.38 534.639 1017.77 534.05 1015.8 534.05C1014.59 534.05 1013.46 534.311 1012.4 534.832C1011.35 535.331 1010.43 536.056 1009.64 537.008C1008.85 537.96 1008.22 539.105 1007.77 540.442C1007.32 541.779 1007.09 543.287 1007.09 544.964C1007.09 547.095 1007.5 548.976 1008.32 550.608C1009.13 552.24 1010.23 553.509 1011.61 554.416C1013 555.323 1014.53 555.776 1016.2 555.776C1017.68 555.776 1019.13 555.447 1020.56 554.79C1021.98 554.11 1023.15 553.135 1024.06 551.866L1024.94 552.58C1023.97 553.917 1022.91 554.949 1021.78 555.674C1020.65 556.399 1019.51 556.887 1018.38 557.136C1017.27 557.408 1016.25 557.544 1015.32 557.544C1013.62 557.544 1012.06 557.238 1010.63 556.626C1009.22 556.014 1008 555.164 1006.96 554.076C1005.94 552.965 1005.14 551.685 1004.58 550.234C1004.03 548.761 1003.76 547.174 1003.76 545.474C1003.76 543.865 1004 542.301 1004.47 540.782C1004.97 539.263 1005.71 537.892 1006.68 536.668C1007.66 535.444 1008.88 534.469 1010.36 533.744C1011.85 533.019 1013.59 532.656 1015.56 532.656C1016.83 532.656 1018.03 532.826 1019.16 533.166C1020.29 533.506 1021.38 534.027 1022.43 534.73L1022.26 532.894H1024.09V540.782H1022.87ZM1055.57 540.782C1055.35 538.651 1054.6 536.997 1053.33 535.818C1052.08 534.639 1050.47 534.05 1048.5 534.05C1047.3 534.05 1046.17 534.311 1045.1 534.832C1044.06 535.331 1043.14 536.056 1042.35 537.008C1041.55 537.96 1040.93 539.105 1040.48 540.442C1040.02 541.779 1039.8 543.287 1039.8 544.964C1039.8 547.095 1040.2 548.976 1041.02 550.608C1041.84 552.24 1042.94 553.509 1044.32 554.416C1045.7 555.323 1047.23 555.776 1048.91 555.776C1050.38 555.776 1051.83 555.447 1053.26 554.79C1054.69 554.11 1055.86 553.135 1056.76 551.866L1057.65 552.58C1056.67 553.917 1055.62 554.949 1054.48 555.674C1053.35 556.399 1052.22 556.887 1051.08 557.136C1049.97 557.408 1048.95 557.544 1048.02 557.544C1046.32 557.544 1044.76 557.238 1043.33 556.626C1041.93 556.014 1040.7 555.164 1039.66 554.076C1038.64 552.965 1037.85 551.685 1037.28 550.234C1036.74 548.761 1036.46 547.174 1036.46 545.474C1036.46 543.865 1036.7 542.301 1037.18 540.782C1037.68 539.263 1038.41 537.892 1039.39 536.668C1040.36 535.444 1041.59 534.469 1043.06 533.744C1044.56 533.019 1046.29 532.656 1048.26 532.656C1049.53 532.656 1050.73 532.826 1051.87 533.166C1053 533.506 1054.09 534.027 1055.13 534.73L1054.96 532.894H1056.8V540.782H1055.57ZM1068.6 557.544C1067.02 557.544 1065.58 557.181 1064.28 556.456C1062.99 555.708 1061.96 554.688 1061.19 553.396C1060.44 552.081 1060.07 550.585 1060.07 548.908C1060.07 547.117 1060.44 545.508 1061.19 544.08C1061.94 542.652 1062.96 541.53 1064.25 540.714C1065.54 539.875 1066.99 539.456 1068.6 539.456C1070.19 539.456 1071.63 539.841 1072.92 540.612C1074.21 541.36 1075.24 542.38 1076.01 543.672C1076.78 544.964 1077.17 546.437 1077.17 548.092C1077.17 549.837 1076.78 551.435 1076.01 552.886C1075.27 554.314 1074.25 555.447 1072.95 556.286C1071.66 557.125 1070.21 557.544 1068.6 557.544ZM1068.87 556.184C1070.08 556.184 1071.03 555.844 1071.73 555.164C1072.43 554.484 1072.93 553.6 1073.23 552.512C1073.54 551.424 1073.7 550.279 1073.7 549.078C1073.7 548.058 1073.6 547.061 1073.4 546.086C1073.21 545.089 1072.92 544.193 1072.51 543.4C1072.1 542.584 1071.57 541.938 1070.91 541.462C1070.28 540.986 1069.51 540.748 1068.6 540.748C1067.42 540.748 1066.46 541.088 1065.71 541.768C1064.96 542.448 1064.41 543.332 1064.05 544.42C1063.71 545.508 1063.54 546.675 1063.54 547.922C1063.54 549.327 1063.73 550.665 1064.11 551.934C1064.5 553.181 1065.09 554.201 1065.88 554.994C1066.68 555.787 1067.67 556.184 1068.87 556.184ZM1080.06 557V555.98C1080.76 555.98 1081.25 555.81 1081.52 555.47C1081.79 555.107 1081.95 554.62 1082 554.008C1082.04 553.373 1082.06 552.648 1082.06 551.832V544.08C1082.06 543.717 1082.06 543.355 1082.06 542.992C1082.09 542.629 1082.13 542.255 1082.2 541.87C1081.79 541.893 1081.38 541.915 1080.98 541.938C1080.59 541.961 1080.19 541.983 1079.79 542.006V540.578C1080.78 540.578 1081.53 540.533 1082.03 540.442C1082.55 540.351 1082.94 540.238 1083.19 540.102C1083.44 539.966 1083.64 539.819 1083.8 539.66H1084.78C1084.83 539.887 1084.85 540.147 1084.85 540.442C1084.88 540.737 1084.9 541.077 1084.92 541.462C1085.6 540.873 1086.38 540.397 1087.27 540.034C1088.15 539.649 1089.03 539.456 1089.92 539.456C1091.05 539.456 1092 539.66 1092.77 540.068C1093.55 540.476 1094.15 541.031 1094.58 541.734C1095.35 541.099 1096.23 540.567 1097.23 540.136C1098.25 539.683 1099.25 539.456 1100.22 539.456C1102.19 539.456 1103.64 540.057 1104.57 541.258C1105.5 542.437 1105.94 544.375 1105.9 547.072L1105.86 553.396C1105.86 553.849 1105.85 554.257 1105.83 554.62C1105.83 554.96 1105.8 555.323 1105.73 555.708C1106.09 555.685 1106.44 555.674 1106.78 555.674C1107.15 555.651 1107.51 555.629 1107.87 555.606V557H1100.93V555.98C1101.64 555.98 1102.12 555.81 1102.4 555.47C1102.67 555.107 1102.83 554.62 1102.87 554.008C1102.92 553.373 1102.94 552.648 1102.94 551.832V547.072C1102.94 545.123 1102.62 543.661 1101.99 542.686C1101.38 541.711 1100.4 541.235 1099.06 541.258C1098.36 541.258 1097.66 541.417 1096.96 541.734C1096.25 542.051 1095.64 542.448 1095.12 542.924C1095.23 543.287 1095.31 543.683 1095.36 544.114C1095.43 544.522 1095.46 544.953 1095.46 545.406C1095.44 546.721 1095.43 548.047 1095.43 549.384C1095.43 550.721 1095.42 552.059 1095.39 553.396C1095.39 553.849 1095.38 554.257 1095.36 554.62C1095.36 554.96 1095.32 555.323 1095.26 555.708C1095.62 555.685 1095.97 555.674 1096.31 555.674C1096.67 555.651 1097.04 555.629 1097.4 555.606V557H1090.46V555.98C1091.17 555.98 1091.64 555.81 1091.89 555.47C1092.16 555.107 1092.32 554.62 1092.37 554.008C1092.43 553.373 1092.47 552.648 1092.47 551.832L1092.5 547.072C1092.53 545.123 1092.24 543.649 1091.65 542.652C1091.06 541.655 1090.1 541.167 1088.76 541.19C1088.06 541.19 1087.37 541.349 1086.69 541.666C1086.01 541.961 1085.43 542.346 1084.95 542.822C1084.95 543.094 1084.95 543.389 1084.95 543.706C1084.98 544.001 1084.99 544.318 1084.99 544.658V553.396C1084.99 553.849 1084.98 554.257 1084.95 554.62C1084.95 554.96 1084.92 555.323 1084.85 555.708C1085.22 555.685 1085.57 555.674 1085.91 555.674C1086.27 555.651 1086.63 555.629 1086.99 555.606V557H1080.06ZM1110.44 557V555.98C1111.14 555.98 1111.63 555.81 1111.9 555.47C1112.17 555.107 1112.33 554.62 1112.38 554.008C1112.42 553.373 1112.45 552.648 1112.45 551.832V544.08C1112.45 543.717 1112.45 543.355 1112.45 542.992C1112.47 542.629 1112.51 542.255 1112.58 541.87C1112.17 541.893 1111.77 541.915 1111.36 541.938C1110.97 541.961 1110.58 541.983 1110.17 542.006V540.578C1111.16 540.578 1111.91 540.533 1112.41 540.442C1112.93 540.351 1113.32 540.238 1113.57 540.102C1113.82 539.966 1114.02 539.819 1114.18 539.66H1115.17C1115.21 539.887 1115.23 540.147 1115.23 540.442C1115.26 540.737 1115.28 541.077 1115.3 541.462C1115.98 540.873 1116.76 540.397 1117.65 540.034C1118.53 539.649 1119.42 539.456 1120.3 539.456C1121.43 539.456 1122.38 539.66 1123.16 540.068C1123.93 540.476 1124.53 541.031 1124.96 541.734C1125.73 541.099 1126.61 540.567 1127.61 540.136C1128.63 539.683 1129.63 539.456 1130.6 539.456C1132.57 539.456 1134.02 540.057 1134.95 541.258C1135.88 542.437 1136.32 544.375 1136.28 547.072L1136.25 553.396C1136.25 553.849 1136.23 554.257 1136.21 554.62C1136.21 554.96 1136.18 555.323 1136.11 555.708C1136.47 555.685 1136.82 555.674 1137.16 555.674C1137.53 555.651 1137.89 555.629 1138.25 555.606V557H1131.32V555.98C1132.02 555.98 1132.51 555.81 1132.78 555.47C1133.05 555.107 1133.21 554.62 1133.25 554.008C1133.3 553.373 1133.32 552.648 1133.32 551.832V547.072C1133.32 545.123 1133 543.661 1132.37 542.686C1131.76 541.711 1130.78 541.235 1129.45 541.258C1128.74 541.258 1128.04 541.417 1127.34 541.734C1126.63 542.051 1126.02 542.448 1125.5 542.924C1125.61 543.287 1125.69 543.683 1125.74 544.114C1125.81 544.522 1125.84 544.953 1125.84 545.406C1125.82 546.721 1125.81 548.047 1125.81 549.384C1125.81 550.721 1125.8 552.059 1125.77 553.396C1125.77 553.849 1125.76 554.257 1125.74 554.62C1125.74 554.96 1125.71 555.323 1125.64 555.708C1126 555.685 1126.35 555.674 1126.69 555.674C1127.05 555.651 1127.42 555.629 1127.78 555.606V557H1120.84V555.98C1121.55 555.98 1122.02 555.81 1122.27 555.47C1122.54 555.107 1122.7 554.62 1122.75 554.008C1122.82 553.373 1122.85 552.648 1122.85 551.832L1122.88 547.072C1122.91 545.123 1122.62 543.649 1122.03 542.652C1121.44 541.655 1120.48 541.167 1119.14 541.19C1118.44 541.19 1117.75 541.349 1117.07 541.666C1116.39 541.961 1115.81 542.346 1115.34 542.822C1115.34 543.094 1115.34 543.389 1115.34 543.706C1115.36 544.001 1115.37 544.318 1115.37 544.658V553.396C1115.37 553.849 1115.36 554.257 1115.34 554.62C1115.34 554.96 1115.3 555.323 1115.23 555.708C1115.6 555.685 1115.95 555.674 1116.29 555.674C1116.65 555.651 1117.01 555.629 1117.38 555.606V557H1110.44ZM1147.99 557.544C1146.77 557.544 1145.74 557.317 1144.9 556.864C1144.08 556.411 1143.46 555.64 1143.03 554.552C1142.62 553.464 1142.42 551.991 1142.42 550.132V544.08C1142.42 543.717 1142.42 543.355 1142.42 542.992C1142.44 542.629 1142.49 542.255 1142.55 541.87C1142.17 541.893 1141.77 541.915 1141.36 541.938C1140.98 541.938 1140.59 541.949 1140.21 541.972V540.578H1141.26C1142.24 540.578 1142.94 540.487 1143.37 540.306C1143.82 540.102 1144.17 539.887 1144.42 539.66H1145.41V550.03C1145.41 551.979 1145.68 553.441 1146.23 554.416C1146.79 555.368 1147.74 555.833 1149.08 555.81C1149.94 555.787 1150.76 555.527 1151.53 555.028C1152.32 554.507 1152.96 553.895 1153.43 553.192V544.454C1153.43 543.91 1153.45 543.445 1153.47 543.06C1153.49 542.652 1153.54 542.255 1153.6 541.87C1153.2 541.893 1152.79 541.915 1152.38 541.938C1151.97 541.938 1151.56 541.949 1151.16 541.972V540.578H1152.21C1153.18 540.578 1153.89 540.487 1154.32 540.306C1154.77 540.102 1155.12 539.887 1155.37 539.66H1156.36L1156.32 552.512C1156.32 552.875 1156.31 553.385 1156.29 554.042C1156.27 554.699 1156.23 555.255 1156.19 555.708C1156.6 555.685 1157 555.663 1157.41 555.64C1157.82 555.617 1158.23 555.595 1158.64 555.572V557H1153.77C1153.71 556.615 1153.65 556.252 1153.6 555.912C1153.58 555.572 1153.56 555.255 1153.54 554.96C1152.83 555.663 1151.98 556.275 1150.99 556.796C1149.99 557.295 1148.99 557.544 1147.99 557.544ZM1161.11 557V555.98C1161.81 555.98 1162.3 555.81 1162.57 555.47C1162.84 555.107 1163 554.62 1163.05 554.008C1163.09 553.373 1163.11 552.648 1163.11 551.832L1163.15 544.08C1163.15 543.717 1163.15 543.355 1163.15 542.992C1163.17 542.629 1163.22 542.255 1163.28 541.87C1162.88 541.893 1162.47 541.915 1162.06 541.938C1161.67 541.961 1161.28 541.983 1160.87 542.006V540.578C1161.87 540.578 1162.61 540.533 1163.11 540.442C1163.63 540.351 1164.02 540.238 1164.27 540.102C1164.52 539.966 1164.72 539.819 1164.88 539.66H1165.87C1165.89 539.819 1165.9 540 1165.9 540.204C1165.92 540.408 1165.95 540.635 1165.97 540.884C1165.99 541.133 1166 541.417 1166 541.734C1166.5 541.303 1167.05 540.918 1167.64 540.578C1168.25 540.238 1168.88 539.966 1169.54 539.762C1170.22 539.558 1170.89 539.456 1171.55 539.456C1173.52 539.456 1174.96 540.079 1175.86 541.326C1176.77 542.55 1177.22 544.465 1177.22 547.072V553.396C1177.22 553.849 1177.21 554.257 1177.19 554.62C1177.19 554.96 1177.16 555.323 1177.09 555.708C1177.45 555.685 1177.8 555.674 1178.14 555.674C1178.5 555.651 1178.87 555.629 1179.23 555.606V557H1172.29V555.98C1173 555.98 1173.48 555.81 1173.76 555.47C1174.03 555.107 1174.19 554.62 1174.23 554.008C1174.28 553.373 1174.3 552.648 1174.3 551.832V547.072C1174.28 545.123 1173.95 543.649 1173.31 542.652C1172.7 541.655 1171.73 541.167 1170.39 541.19C1169.57 541.213 1168.77 541.428 1167.98 541.836C1167.2 542.244 1166.56 542.765 1166.04 543.4C1166.06 543.581 1166.07 543.785 1166.07 544.012C1166.07 544.239 1166.07 544.477 1166.07 544.726L1166.04 553.396C1166.04 553.849 1166.03 554.257 1166 554.62C1166 554.96 1165.97 555.323 1165.9 555.708C1166.26 555.685 1166.62 555.674 1166.96 555.674C1167.32 555.651 1167.68 555.629 1168.04 555.606V557H1161.11ZM1181.76 555.98C1182.46 555.98 1182.95 555.81 1183.22 555.47C1183.49 555.107 1183.65 554.62 1183.7 554.008C1183.74 553.373 1183.77 552.648 1183.77 551.832V544.08C1183.77 543.717 1183.78 543.377 1183.8 543.06C1183.82 542.72 1183.86 542.323 1183.9 541.87C1183.49 541.893 1183.09 541.915 1182.68 541.938C1182.29 541.961 1181.9 541.983 1181.49 542.006V540.578C1182.49 540.578 1183.26 540.533 1183.8 540.442C1184.34 540.351 1184.75 540.238 1185.02 540.102C1185.32 539.966 1185.55 539.819 1185.7 539.66H1186.69V553.396C1186.69 553.849 1186.68 554.257 1186.66 554.62C1186.66 554.96 1186.62 555.323 1186.55 555.708C1186.92 555.685 1187.27 555.674 1187.61 555.674C1187.97 555.651 1188.33 555.629 1188.7 555.606V557H1181.76V555.98ZM1185.06 536.294C1184.58 536.294 1184.16 536.101 1183.8 535.716C1183.44 535.331 1183.26 534.855 1183.26 534.288C1183.26 533.721 1183.44 533.245 1183.8 532.86C1184.19 532.452 1184.62 532.248 1185.09 532.248C1185.61 532.248 1186.04 532.452 1186.38 532.86C1186.75 533.245 1186.93 533.721 1186.93 534.288C1186.93 534.855 1186.74 535.331 1186.35 535.716C1185.99 536.101 1185.56 536.294 1185.06 536.294ZM1198.25 557.544C1197.72 557.544 1197.19 557.465 1196.65 557.306C1196.1 557.17 1195.59 556.887 1195.12 556.456C1194.66 556.025 1194.3 555.402 1194.03 554.586C1193.76 553.747 1193.62 552.648 1193.62 551.288L1193.69 541.428L1191.07 541.462V540C1191.66 539.977 1192.26 539.762 1192.87 539.354C1193.49 538.923 1194.03 538.345 1194.51 537.62C1195 536.895 1195.34 536.101 1195.53 535.24H1196.68V540H1202.39V541.326L1196.68 541.394L1196.61 550.846C1196.61 551.866 1196.69 552.739 1196.85 553.464C1197.03 554.167 1197.32 554.699 1197.7 555.062C1198.09 555.425 1198.59 555.606 1199.2 555.606C1199.83 555.606 1200.42 555.425 1200.97 555.062C1201.53 554.699 1202.03 554.201 1202.46 553.566L1203.38 554.314C1202.88 555.062 1202.38 555.651 1201.88 556.082C1201.41 556.513 1200.94 556.83 1200.49 557.034C1200.04 557.261 1199.62 557.397 1199.23 557.442C1198.85 557.51 1198.52 557.544 1198.25 557.544ZM1207.69 566.214C1206.98 566.214 1206.38 566.044 1205.88 565.704C1205.39 565.364 1205.14 564.843 1205.14 564.14C1205.14 563.732 1205.27 563.358 1205.54 563.018C1205.82 562.678 1206.17 562.508 1206.6 562.508C1207.14 562.485 1207.5 562.655 1207.69 563.018C1207.89 563.381 1207.99 563.698 1207.99 563.97C1207.99 564.038 1207.99 564.106 1207.99 564.174C1207.99 564.265 1207.98 564.355 1207.96 564.446C1208.03 564.491 1208.15 564.514 1208.33 564.514C1208.6 564.514 1208.9 564.401 1209.22 564.174C1209.53 563.947 1209.82 563.619 1210.07 563.188C1210.36 562.689 1210.7 561.941 1211.09 560.944C1211.49 559.947 1211.95 558.757 1212.45 557.374L1207.14 546.018C1206.55 544.749 1206.12 543.74 1205.85 542.992C1205.6 542.244 1205.43 541.689 1205.34 541.326L1203.71 541.394V540H1210.75V541.02H1210.61C1209.66 541.088 1209.14 541.451 1209.05 542.108C1208.96 542.743 1209.22 543.717 1209.83 545.032L1213.81 553.566C1214.33 552.115 1214.83 550.687 1215.3 549.282C1215.78 547.854 1216.25 546.437 1216.73 545.032C1216.91 544.533 1217.09 544.023 1217.27 543.502C1217.48 542.958 1217.67 542.482 1217.85 542.074C1218.06 541.643 1218.24 541.371 1218.4 541.258L1216.05 541.394V540H1221.39V541.02C1220.55 541.337 1219.91 541.87 1219.48 542.618C1219.08 543.343 1218.66 544.284 1218.23 545.44L1213.98 557.306C1213.3 559.21 1212.67 560.819 1212.11 562.134C1211.54 563.471 1210.92 564.48 1210.24 565.16C1209.56 565.863 1208.71 566.214 1207.69 566.214ZM1251.14 540.782C1250.91 538.651 1250.16 536.997 1248.89 535.818C1247.65 534.639 1246.04 534.05 1244.07 534.05C1242.87 534.05 1241.73 534.311 1240.67 534.832C1239.62 535.331 1238.71 536.056 1237.91 537.008C1237.12 537.96 1236.5 539.105 1236.04 540.442C1235.59 541.779 1235.36 543.287 1235.36 544.964C1235.36 547.095 1235.77 548.976 1236.59 550.608C1237.4 552.24 1238.5 553.509 1239.88 554.416C1241.27 555.323 1242.8 555.776 1244.47 555.776C1245.95 555.776 1247.4 555.447 1248.83 554.79C1250.25 554.11 1251.42 553.135 1252.33 551.866L1253.21 552.58C1252.24 553.917 1251.18 554.949 1250.05 555.674C1248.92 556.399 1247.78 556.887 1246.65 557.136C1245.54 557.408 1244.52 557.544 1243.59 557.544C1241.89 557.544 1240.33 557.238 1238.9 556.626C1237.49 556.014 1236.27 555.164 1235.23 554.076C1234.21 552.965 1233.41 551.685 1232.85 550.234C1232.3 548.761 1232.03 547.174 1232.03 545.474C1232.03 543.865 1232.27 542.301 1232.74 540.782C1233.24 539.263 1233.98 537.892 1234.95 536.668C1235.93 535.444 1237.15 534.469 1238.63 533.744C1240.12 533.019 1241.86 532.656 1243.83 532.656C1245.1 532.656 1246.3 532.826 1247.43 533.166C1248.57 533.506 1249.65 534.027 1250.7 534.73L1250.53 532.894H1252.36V540.782H1251.14ZM1266.65 555.98C1267.35 555.98 1267.84 555.81 1268.11 555.47C1268.38 555.107 1268.54 554.62 1268.59 554.008C1268.63 553.373 1268.66 552.648 1268.66 551.832V547.072C1268.66 545.123 1268.34 543.661 1267.7 542.686C1267.09 541.711 1266.12 541.235 1264.78 541.258C1263.94 541.281 1263.11 541.485 1262.3 541.87C1261.5 542.255 1260.86 542.754 1260.36 543.366V553.396C1260.36 553.849 1260.35 554.257 1260.33 554.62C1260.3 554.96 1260.26 555.323 1260.19 555.708C1260.55 555.685 1260.9 555.674 1261.24 555.674C1261.61 555.651 1261.97 555.629 1262.33 555.606V557H1255.4V555.98C1256.1 555.98 1256.59 555.81 1256.86 555.47C1257.13 555.107 1257.29 554.62 1257.33 554.008C1257.4 553.373 1257.44 552.648 1257.44 551.832V535.75C1257.44 535.387 1257.44 535.047 1257.44 534.73C1257.46 534.39 1257.49 533.993 1257.54 533.54C1257.13 533.563 1256.72 533.585 1256.31 533.608C1255.93 533.631 1255.53 533.653 1255.12 533.676V532.248C1256.12 532.248 1256.89 532.203 1257.44 532.112C1258 532.021 1258.42 531.908 1258.69 531.772C1258.99 531.636 1259.22 531.489 1259.37 531.33H1260.36V541.7C1260.86 541.269 1261.41 540.895 1262.03 540.578C1262.66 540.238 1263.31 539.966 1263.96 539.762C1264.64 539.558 1265.3 539.456 1265.94 539.456C1267.91 539.456 1269.32 540.079 1270.19 541.326C1271.07 542.55 1271.52 544.465 1271.55 547.072L1271.58 553.396C1271.58 553.849 1271.57 554.257 1271.55 554.62C1271.55 554.96 1271.51 555.323 1271.44 555.708C1271.81 555.685 1272.16 555.674 1272.5 555.674C1272.86 555.651 1273.22 555.629 1273.59 555.606V557H1266.65V555.98ZM1283.26 557.544C1282.04 557.544 1281.01 557.317 1280.17 556.864C1279.35 556.411 1278.73 555.64 1278.3 554.552C1277.89 553.464 1277.69 551.991 1277.69 550.132V544.08C1277.69 543.717 1277.69 543.355 1277.69 542.992C1277.71 542.629 1277.76 542.255 1277.82 541.87C1277.44 541.893 1277.04 541.915 1276.63 541.938C1276.25 541.938 1275.86 541.949 1275.48 541.972V540.578H1276.53C1277.51 540.578 1278.21 540.487 1278.64 540.306C1279.09 540.102 1279.44 539.887 1279.69 539.66H1280.68V550.03C1280.68 551.979 1280.95 553.441 1281.5 554.416C1282.06 555.368 1283.01 555.833 1284.35 555.81C1285.21 555.787 1286.03 555.527 1286.8 555.028C1287.59 554.507 1288.23 553.895 1288.7 553.192V544.454C1288.7 543.91 1288.72 543.445 1288.74 543.06C1288.76 542.652 1288.81 542.255 1288.87 541.87C1288.47 541.893 1288.06 541.915 1287.65 541.938C1287.24 541.938 1286.83 541.949 1286.43 541.972V540.578H1287.48C1288.45 540.578 1289.16 540.487 1289.59 540.306C1290.04 540.102 1290.39 539.887 1290.64 539.66H1291.63L1291.59 552.512C1291.59 552.875 1291.58 553.385 1291.56 554.042C1291.54 554.699 1291.5 555.255 1291.46 555.708C1291.87 555.685 1292.27 555.663 1292.68 555.64C1293.09 555.617 1293.5 555.595 1293.91 555.572V557H1289.04C1288.98 556.615 1288.92 556.252 1288.87 555.912C1288.85 555.572 1288.83 555.255 1288.81 554.96C1288.1 555.663 1287.25 556.275 1286.26 556.796C1285.26 557.295 1284.26 557.544 1283.26 557.544ZM1296.38 555.98C1297.08 555.98 1297.57 555.81 1297.84 555.47C1298.11 555.107 1298.27 554.62 1298.31 554.008C1298.36 553.373 1298.38 552.648 1298.38 551.832V544.08C1298.38 543.717 1298.38 543.355 1298.38 542.992C1298.41 542.629 1298.45 542.255 1298.52 541.87C1298.11 541.893 1297.7 541.915 1297.29 541.938C1296.91 541.938 1296.51 541.949 1296.1 541.972V540.578H1297.16C1298.13 540.578 1298.8 540.487 1299.16 540.306C1299.55 540.102 1299.87 539.887 1300.12 539.66H1301.1C1301.15 540.023 1301.18 540.476 1301.2 541.02C1301.23 541.541 1301.25 542.21 1301.27 543.026C1301.61 542.459 1302.08 541.904 1302.67 541.36C1303.26 540.816 1303.91 540.363 1304.64 540C1305.39 539.637 1306.17 539.456 1306.98 539.456C1307.62 539.456 1308.17 539.626 1308.65 539.966C1309.13 540.306 1309.36 540.85 1309.36 541.598C1309.36 541.779 1309.31 542.006 1309.19 542.278C1309.08 542.527 1308.9 542.754 1308.65 542.958C1308.4 543.139 1308.07 543.23 1307.66 543.23C1307.17 543.207 1306.77 543.015 1306.47 542.652C1306.18 542.267 1306.07 541.825 1306.13 541.326C1305.57 541.303 1304.98 541.451 1304.37 541.768C1303.78 542.085 1303.22 542.527 1302.7 543.094C1302.18 543.638 1301.71 544.284 1301.31 545.032L1301.34 553.396C1301.34 553.849 1301.33 554.257 1301.31 554.62C1301.31 554.96 1301.27 555.323 1301.2 555.708C1301.57 555.685 1301.92 555.674 1302.26 555.674C1302.62 555.651 1302.98 555.629 1303.35 555.606V557H1296.38V555.98ZM1319.15 557.544C1317.63 557.544 1316.23 557.204 1314.93 556.524C1313.66 555.821 1312.64 554.824 1311.87 553.532C1311.13 552.217 1310.75 550.642 1310.75 548.806C1310.75 547.627 1310.97 546.483 1311.4 545.372C1311.83 544.261 1312.43 543.264 1313.2 542.38C1313.99 541.473 1314.93 540.759 1316.02 540.238C1317.11 539.717 1318.31 539.456 1319.63 539.456C1320.89 539.456 1321.99 539.649 1322.92 540.034C1323.88 540.419 1324.61 540.929 1325.13 541.564C1325.65 542.199 1325.92 542.89 1325.92 543.638C1325.92 544.137 1325.78 544.567 1325.51 544.93C1325.24 545.27 1324.84 545.44 1324.32 545.44C1323.75 545.463 1323.34 545.293 1323.09 544.93C1322.87 544.545 1322.75 544.205 1322.75 543.91C1322.75 543.683 1322.79 543.457 1322.86 543.23C1322.92 542.981 1323.06 542.754 1323.26 542.55C1323.08 542.006 1322.76 541.609 1322.31 541.36C1321.86 541.088 1321.38 540.918 1320.88 540.85C1320.41 540.759 1320.01 540.714 1319.69 540.714C1318.15 540.714 1316.85 541.337 1315.78 542.584C1314.74 543.808 1314.22 545.599 1314.22 547.956C1314.22 549.475 1314.46 550.823 1314.93 552.002C1315.43 553.181 1316.12 554.11 1317.01 554.79C1317.89 555.447 1318.91 555.776 1320.07 555.776C1321.13 555.776 1322.15 555.493 1323.13 554.926C1324.1 554.359 1324.86 553.668 1325.41 552.852L1326.29 553.532C1325.7 554.484 1324.99 555.255 1324.15 555.844C1323.33 556.433 1322.48 556.864 1321.6 557.136C1320.74 557.408 1319.92 557.544 1319.15 557.544ZM1339.86 555.98C1340.57 555.98 1341.05 555.81 1341.33 555.47C1341.6 555.107 1341.76 554.62 1341.8 554.008C1341.85 553.373 1341.87 552.648 1341.87 551.832V547.072C1341.87 545.123 1341.55 543.661 1340.92 542.686C1340.31 541.711 1339.33 541.235 1337.99 541.258C1337.15 541.281 1336.33 541.485 1335.51 541.87C1334.72 542.255 1334.07 542.754 1333.57 543.366V553.396C1333.57 553.849 1333.56 554.257 1333.54 554.62C1333.52 554.96 1333.47 555.323 1333.4 555.708C1333.77 555.685 1334.12 555.674 1334.46 555.674C1334.82 555.651 1335.18 555.629 1335.55 555.606V557H1328.61V555.98C1329.31 555.98 1329.8 555.81 1330.07 555.47C1330.34 555.107 1330.5 554.62 1330.55 554.008C1330.62 553.373 1330.65 552.648 1330.65 551.832V535.75C1330.65 535.387 1330.65 535.047 1330.65 534.73C1330.67 534.39 1330.71 533.993 1330.75 533.54C1330.34 533.563 1329.94 533.585 1329.53 533.608C1329.14 533.631 1328.75 533.653 1328.34 533.676V532.248C1329.33 532.248 1330.11 532.203 1330.65 532.112C1331.22 532.021 1331.64 531.908 1331.91 531.772C1332.2 531.636 1332.43 531.489 1332.59 531.33H1333.57V541.7C1334.07 541.269 1334.63 540.895 1335.24 540.578C1335.87 540.238 1336.52 539.966 1337.18 539.762C1337.86 539.558 1338.51 539.456 1339.15 539.456C1341.12 539.456 1342.54 540.079 1343.4 541.326C1344.28 542.55 1344.74 544.465 1344.76 547.072L1344.79 553.396C1344.79 553.849 1344.78 554.257 1344.76 554.62C1344.76 554.96 1344.73 555.323 1344.66 555.708C1345.02 555.685 1345.37 555.674 1345.71 555.674C1346.07 555.651 1346.44 555.629 1346.8 555.606V557H1339.86V555.98ZM1357.53 557.544C1355.97 557.544 1354.55 557.181 1353.28 556.456C1352.03 555.708 1351.05 554.665 1350.32 553.328C1349.6 551.968 1349.23 550.37 1349.23 548.534C1349.23 546.947 1349.59 545.463 1350.29 544.08C1351.01 542.697 1352.02 541.587 1353.31 540.748C1354.61 539.887 1356.1 539.456 1357.8 539.456C1358.75 539.456 1359.64 539.615 1360.45 539.932C1361.29 540.227 1362.03 540.691 1362.66 541.326C1363.3 541.938 1363.8 542.72 1364.16 543.672C1364.52 544.601 1364.7 545.701 1364.7 546.97L1352.74 547.174C1352.74 548.897 1352.92 550.415 1353.28 551.73C1353.67 553.022 1354.28 554.031 1355.12 554.756C1355.96 555.459 1357.03 555.81 1358.35 555.81C1359.05 555.81 1359.76 555.685 1360.49 555.436C1361.24 555.187 1361.93 554.847 1362.56 554.416C1363.2 553.985 1363.71 553.509 1364.09 552.988L1364.91 553.668C1364.3 554.62 1363.56 555.379 1362.7 555.946C1361.84 556.513 1360.95 556.921 1360.05 557.17C1359.14 557.419 1358.3 557.544 1357.53 557.544ZM1352.84 545.746H1361.51C1361.51 544.93 1361.38 544.148 1361.13 543.4C1360.91 542.629 1360.52 542.006 1359.98 541.53C1359.43 541.031 1358.72 540.782 1357.84 540.782C1356.52 540.782 1355.42 541.179 1354.54 541.972C1353.68 542.743 1353.11 544.001 1352.84 545.746ZM1374.7 557.544C1373.57 557.544 1372.56 557.385 1371.67 557.068C1370.79 556.773 1370.07 556.433 1369.5 556.048L1369.63 557.238H1368.21L1368 551.39H1369.06C1369.1 552.319 1369.36 553.158 1369.84 553.906C1370.31 554.631 1370.93 555.198 1371.67 555.606C1372.42 556.014 1373.23 556.218 1374.09 556.218C1374.68 556.218 1375.26 556.127 1375.82 555.946C1376.39 555.742 1376.87 555.447 1377.25 555.062C1377.64 554.654 1377.83 554.144 1377.83 553.532C1377.83 552.897 1377.64 552.376 1377.25 551.968C1376.89 551.537 1376.4 551.163 1375.79 550.846C1375.18 550.529 1374.52 550.234 1373.82 549.962C1373.14 549.69 1372.46 549.407 1371.78 549.112C1371.1 548.817 1370.46 548.466 1369.87 548.058C1369.31 547.65 1368.85 547.151 1368.51 546.562C1368.17 545.973 1368 545.247 1368 544.386C1368 543.91 1368.09 543.389 1368.27 542.822C1368.46 542.255 1368.76 541.723 1369.19 541.224C1369.62 540.703 1370.21 540.283 1370.96 539.966C1371.71 539.626 1372.66 539.456 1373.82 539.456C1374.43 539.456 1375.11 539.558 1375.86 539.762C1376.6 539.966 1377.33 540.351 1378.03 540.918L1377.96 539.626H1379.39V545.576H1378.3C1378.26 544.783 1378.08 544.023 1377.76 543.298C1377.44 542.55 1376.98 541.938 1376.37 541.462C1375.75 540.963 1374.96 540.714 1373.99 540.714C1372.94 540.714 1372.13 540.975 1371.54 541.496C1370.95 542.017 1370.65 542.618 1370.65 543.298C1370.65 544.001 1370.87 544.59 1371.3 545.066C1371.75 545.519 1372.33 545.916 1373.03 546.256C1373.74 546.596 1374.49 546.925 1375.28 547.242C1376.14 547.605 1376.98 548.001 1377.79 548.432C1378.61 548.863 1379.28 549.407 1379.8 550.064C1380.32 550.699 1380.58 551.526 1380.58 552.546C1380.58 553.679 1380.29 554.62 1379.7 555.368C1379.13 556.116 1378.4 556.66 1377.49 557C1376.6 557.363 1375.68 557.544 1374.7 557.544ZM1149.11 582.16L1149.96 582.942C1149.26 583.871 1148.63 584.857 1148.06 585.9C1147.51 586.92 1147.04 587.985 1146.63 589.096C1146.22 590.184 1145.88 591.317 1145.61 592.496C1145.36 593.675 1145.17 594.887 1145.03 596.134C1144.9 597.358 1144.83 598.605 1144.83 599.874C1144.83 601.143 1144.9 602.39 1145.03 603.614C1145.17 604.815 1145.36 605.983 1145.61 607.116C1145.88 608.249 1146.22 609.349 1146.63 610.414C1147.04 611.502 1147.51 612.545 1148.06 613.542C1148.63 614.539 1149.26 615.503 1149.96 616.432L1149.11 617.214C1148.27 616.443 1147.4 615.457 1146.49 614.256C1145.59 613.077 1144.75 611.729 1143.98 610.21C1143.21 608.691 1142.58 607.059 1142.11 605.314C1141.63 603.569 1141.39 601.755 1141.39 599.874C1141.39 597.993 1141.63 596.157 1142.11 594.366C1142.58 592.575 1143.21 590.898 1143.98 589.334C1144.75 587.77 1145.59 586.376 1146.49 585.152C1147.4 583.928 1148.27 582.931 1149.11 582.16ZM1170.04 591.782C1169.81 589.651 1169.07 587.997 1167.8 586.818C1166.55 585.639 1164.94 585.05 1162.97 585.05C1161.77 585.05 1160.63 585.311 1159.57 585.832C1158.53 586.331 1157.61 587.056 1156.81 588.008C1156.02 588.96 1155.4 590.105 1154.94 591.442C1154.49 592.779 1154.26 594.287 1154.26 595.964C1154.26 598.095 1154.67 599.976 1155.49 601.608C1156.3 603.24 1157.4 604.509 1158.79 605.416C1160.17 606.323 1161.7 606.776 1163.38 606.776C1164.85 606.776 1166.3 606.447 1167.73 605.79C1169.16 605.11 1170.32 604.135 1171.23 602.866L1172.11 603.58C1171.14 604.917 1170.09 605.949 1168.95 606.674C1167.82 607.399 1166.69 607.887 1165.55 608.136C1164.44 608.408 1163.42 608.544 1162.49 608.544C1160.79 608.544 1159.23 608.238 1157.8 607.626C1156.39 607.014 1155.17 606.164 1154.13 605.076C1153.11 603.965 1152.31 602.685 1151.75 601.234C1151.2 599.761 1150.93 598.174 1150.93 596.474C1150.93 594.865 1151.17 593.301 1151.65 591.782C1152.14 590.263 1152.88 588.892 1153.86 587.668C1154.83 586.444 1156.05 585.469 1157.53 584.744C1159.02 584.019 1160.76 583.656 1162.73 583.656C1164 583.656 1165.2 583.826 1166.33 584.166C1167.47 584.506 1168.56 585.027 1169.6 585.73L1169.43 583.894H1171.26V591.782H1170.04ZM1181.81 608.544C1180.18 608.544 1178.83 608.306 1177.77 607.83C1176.7 607.331 1175.91 606.719 1175.39 605.994C1174.89 605.269 1174.64 604.577 1174.64 603.92C1174.64 603.399 1174.77 602.968 1175.05 602.628C1175.32 602.265 1175.7 602.073 1176.2 602.05C1176.61 602.027 1176.93 602.107 1177.15 602.288C1177.4 602.447 1177.57 602.651 1177.66 602.9C1177.75 603.149 1177.8 603.376 1177.8 603.58C1177.8 603.807 1177.77 604.033 1177.7 604.26C1177.63 604.487 1177.54 604.713 1177.43 604.94C1177.65 605.711 1178.16 606.266 1178.96 606.606C1179.77 606.946 1180.64 607.116 1181.57 607.116C1183.18 607.116 1184.46 606.674 1185.42 605.79C1186.39 604.906 1186.88 603.625 1186.88 601.948C1186.88 600.951 1186.72 600.01 1186.4 599.126C1186.08 598.219 1185.49 597.483 1184.63 596.916C1183.77 596.349 1182.51 596.089 1180.86 596.134C1180.68 596.134 1180.49 596.145 1180.28 596.168C1180.08 596.168 1179.85 596.179 1179.6 596.202V594.672C1179.85 594.672 1180.09 594.672 1180.32 594.672C1180.54 594.672 1180.77 594.672 1181 594.672C1182.2 594.672 1183.14 594.4 1183.82 593.856C1184.5 593.312 1184.98 592.666 1185.28 591.918C1185.57 591.17 1185.72 590.479 1185.72 589.844C1185.72 588.915 1185.6 588.087 1185.35 587.362C1185.12 586.614 1184.71 586.036 1184.12 585.628C1183.53 585.197 1182.72 584.982 1181.68 584.982C1180.66 584.982 1179.78 585.254 1179.06 585.798C1178.33 586.319 1177.88 586.863 1177.7 587.43C1177.9 587.657 1178.04 587.883 1178.11 588.11C1178.2 588.337 1178.24 588.575 1178.24 588.824C1178.24 589.005 1178.18 589.221 1178.07 589.47C1177.98 589.697 1177.82 589.889 1177.6 590.048C1177.37 590.207 1177.06 590.286 1176.68 590.286C1176.2 590.286 1175.84 590.116 1175.59 589.776C1175.34 589.436 1175.22 589.028 1175.22 588.552C1175.22 587.917 1175.46 587.226 1175.96 586.478C1176.46 585.707 1177.22 585.05 1178.24 584.506C1179.28 583.939 1180.59 583.656 1182.15 583.656C1183.38 583.656 1184.51 583.849 1185.55 584.234C1186.59 584.619 1187.43 585.254 1188.07 586.138C1188.7 586.999 1189.02 588.144 1189.02 589.572C1189.02 590.275 1188.84 590.989 1188.48 591.714C1188.14 592.417 1187.56 593.074 1186.74 593.686C1185.95 594.298 1184.85 594.819 1183.44 595.25C1185.6 595.477 1187.29 596.168 1188.51 597.324C1189.76 598.48 1190.38 599.942 1190.38 601.71C1190.38 603.251 1189.97 604.532 1189.16 605.552C1188.36 606.549 1187.31 607.297 1185.99 607.796C1184.7 608.295 1183.31 608.544 1181.81 608.544ZM1192.93 617.214L1192.08 616.432C1192.78 615.503 1193.41 614.517 1193.95 613.474C1194.52 612.454 1195.01 611.389 1195.41 610.278C1195.82 609.19 1196.15 608.057 1196.4 606.878C1196.67 605.699 1196.88 604.498 1197.01 603.274C1197.15 602.027 1197.22 600.769 1197.22 599.5C1197.22 598.231 1197.15 596.995 1197.01 595.794C1196.88 594.57 1196.67 593.391 1196.4 592.258C1196.15 591.125 1195.82 590.025 1195.41 588.96C1195.01 587.872 1194.52 586.829 1193.95 585.832C1193.41 584.835 1192.78 583.871 1192.08 582.942L1192.93 582.16C1193.77 582.931 1194.64 583.917 1195.55 585.118C1196.46 586.297 1197.3 587.645 1198.07 589.164C1198.84 590.683 1199.46 592.315 1199.94 594.06C1200.41 595.805 1200.65 597.619 1200.65 599.5C1200.65 601.381 1200.41 603.217 1199.94 605.008C1199.46 606.799 1198.84 608.476 1198.07 610.04C1197.3 611.604 1196.46 612.998 1195.55 614.222C1194.64 615.446 1193.77 616.443 1192.93 617.214Z" fill="#8B2806"/>
<rect opacity="0.2" x="911" y="483" width="519" height="174" stroke="#20272C" stroke-width="4" stroke-dasharray="14 14"/>
</svg>
